<?xml version="1.0" encoding="utf-8" standalone="no"?>
<!DOCTYPE svg PUBLIC "-//W3C//DTD SVG 1.1//EN"
  "http://www.w3.org/Graphics/SVG/1.1/DTD/svg11.dtd">
<svg xmlns:xlink="http://www.w3.org/1999/xlink" width="460.8pt" height="345.6pt" viewBox="0 0 460.8 345.6" xmlns="http://www.w3.org/2000/svg" version="1.1">
 <metadata>
  <rdf:RDF xmlns:dc="http://purl.org/dc/elements/1.1/" xmlns:cc="http://creativecommons.org/ns#" xmlns:rdf="http://www.w3.org/1999/02/22-rdf-syntax-ns#">
   <cc:Work>
    <dc:type rdf:resource="http://purl.org/dc/dcmitype/StillImage"/>
    <dc:date>2024-05-21T11:02:09.135167</dc:date>
    <dc:format>image/svg+xml</dc:format>
    <dc:creator>
     <cc:Agent>
      <dc:title>Matplotlib v3.6.3, https://matplotlib.org/</dc:title>
     </cc:Agent>
    </dc:creator>
   </cc:Work>
  </rdf:RDF>
 </metadata>
 <defs>
  <style type="text/css">*{stroke-linejoin: round; stroke-linecap: butt}</style>
 </defs>
 <g id="figure_1">
  <g id="patch_1">
   <path d="M 0 345.6 
L 460.8 345.6 
L 460.8 0 
L 0 0 
z
" style="fill: #ffffff"/>
  </g>
  <g id="axes_1">
   <g id="patch_2">
    <path d="M 55.760938 289.28254 
L 450 289.28254 
L 450 25.918125 
L 55.760938 25.918125 
z
" style="fill: #ffffff"/>
   </g>
   <g id="matplotlib.axis_1">
    <g id="xtick_1">
     <g id="line2d_1">
      <defs>
       <path id="mba1a3cedab" d="M 0 0 
L 0 3.5 
" style="stroke: #000000; stroke-width: 0.8"/>
      </defs>
      <g>
       <use xlink:href="#mba1a3cedab" x="73.680895" y="289.28254" style="stroke: #000000; stroke-width: 0.8"/>
      </g>
     </g>
     <g id="text_1">
      <!-- 2000 -->
      <g transform="translate(66.634134 319.651314) rotate(-45) scale(0.1 -0.1)">
       <defs>
        <path id="DejaVuSans-32" d="M 1228 531 
L 3431 531 
L 3431 0 
L 469 0 
L 469 531 
Q 828 903 1448 1529 
Q 2069 2156 2228 2338 
Q 2531 2678 2651 2914 
Q 2772 3150 2772 3378 
Q 2772 3750 2511 3984 
Q 2250 4219 1831 4219 
Q 1534 4219 1204 4116 
Q 875 4013 500 3803 
L 500 4441 
Q 881 4594 1212 4672 
Q 1544 4750 1819 4750 
Q 2544 4750 2975 4387 
Q 3406 4025 3406 3419 
Q 3406 3131 3298 2873 
Q 3191 2616 2906 2266 
Q 2828 2175 2409 1742 
Q 1991 1309 1228 531 
z
" transform="scale(0.015625)"/>
        <path id="DejaVuSans-30" d="M 2034 4250 
Q 1547 4250 1301 3770 
Q 1056 3291 1056 2328 
Q 1056 1369 1301 889 
Q 1547 409 2034 409 
Q 2525 409 2770 889 
Q 3016 1369 3016 2328 
Q 3016 3291 2770 3770 
Q 2525 4250 2034 4250 
z
M 2034 4750 
Q 2819 4750 3233 4129 
Q 3647 3509 3647 2328 
Q 3647 1150 3233 529 
Q 2819 -91 2034 -91 
Q 1250 -91 836 529 
Q 422 1150 422 2328 
Q 422 3509 836 4129 
Q 1250 4750 2034 4750 
z
" transform="scale(0.015625)"/>
       </defs>
       <use xlink:href="#DejaVuSans-32"/>
       <use xlink:href="#DejaVuSans-30" x="63.623047"/>
       <use xlink:href="#DejaVuSans-30" x="127.246094"/>
       <use xlink:href="#DejaVuSans-30" x="190.869141"/>
      </g>
     </g>
    </g>
    <g id="xtick_2">
     <g id="line2d_2">
      <g>
       <use xlink:href="#mba1a3cedab" x="89.263467" y="289.28254" style="stroke: #000000; stroke-width: 0.8"/>
      </g>
     </g>
     <g id="text_2">
      <!-- 2001 -->
      <g transform="translate(82.216706 319.651314) rotate(-45) scale(0.1 -0.1)">
       <defs>
        <path id="DejaVuSans-31" d="M 794 531 
L 1825 531 
L 1825 4091 
L 703 3866 
L 703 4441 
L 1819 4666 
L 2450 4666 
L 2450 531 
L 3481 531 
L 3481 0 
L 794 0 
L 794 531 
z
" transform="scale(0.015625)"/>
       </defs>
       <use xlink:href="#DejaVuSans-32"/>
       <use xlink:href="#DejaVuSans-30" x="63.623047"/>
       <use xlink:href="#DejaVuSans-30" x="127.246094"/>
       <use xlink:href="#DejaVuSans-31" x="190.869141"/>
      </g>
     </g>
    </g>
    <g id="xtick_3">
     <g id="line2d_3">
      <g>
       <use xlink:href="#mba1a3cedab" x="104.846038" y="289.28254" style="stroke: #000000; stroke-width: 0.8"/>
      </g>
     </g>
     <g id="text_3">
      <!-- 2002 -->
      <g transform="translate(97.799277 319.651314) rotate(-45) scale(0.1 -0.1)">
       <use xlink:href="#DejaVuSans-32"/>
       <use xlink:href="#DejaVuSans-30" x="63.623047"/>
       <use xlink:href="#DejaVuSans-30" x="127.246094"/>
       <use xlink:href="#DejaVuSans-32" x="190.869141"/>
      </g>
     </g>
    </g>
    <g id="xtick_4">
     <g id="line2d_4">
      <g>
       <use xlink:href="#mba1a3cedab" x="120.42861" y="289.28254" style="stroke: #000000; stroke-width: 0.8"/>
      </g>
     </g>
     <g id="text_4">
      <!-- 2003 -->
      <g transform="translate(113.381849 319.651314) rotate(-45) scale(0.1 -0.1)">
       <defs>
        <path id="DejaVuSans-33" d="M 2597 2516 
Q 3050 2419 3304 2112 
Q 3559 1806 3559 1356 
Q 3559 666 3084 287 
Q 2609 -91 1734 -91 
Q 1441 -91 1130 -33 
Q 819 25 488 141 
L 488 750 
Q 750 597 1062 519 
Q 1375 441 1716 441 
Q 2309 441 2620 675 
Q 2931 909 2931 1356 
Q 2931 1769 2642 2001 
Q 2353 2234 1838 2234 
L 1294 2234 
L 1294 2753 
L 1863 2753 
Q 2328 2753 2575 2939 
Q 2822 3125 2822 3475 
Q 2822 3834 2567 4026 
Q 2313 4219 1838 4219 
Q 1578 4219 1281 4162 
Q 984 4106 628 3988 
L 628 4550 
Q 988 4650 1302 4700 
Q 1616 4750 1894 4750 
Q 2613 4750 3031 4423 
Q 3450 4097 3450 3541 
Q 3450 3153 3228 2886 
Q 3006 2619 2597 2516 
z
" transform="scale(0.015625)"/>
       </defs>
       <use xlink:href="#DejaVuSans-32"/>
       <use xlink:href="#DejaVuSans-30" x="63.623047"/>
       <use xlink:href="#DejaVuSans-30" x="127.246094"/>
       <use xlink:href="#DejaVuSans-33" x="190.869141"/>
      </g>
     </g>
    </g>
    <g id="xtick_5">
     <g id="line2d_5">
      <g>
       <use xlink:href="#mba1a3cedab" x="136.011181" y="289.28254" style="stroke: #000000; stroke-width: 0.8"/>
      </g>
     </g>
     <g id="text_5">
      <!-- 2004 -->
      <g transform="translate(128.96442 319.651314) rotate(-45) scale(0.1 -0.1)">
       <defs>
        <path id="DejaVuSans-34" d="M 2419 4116 
L 825 1625 
L 2419 1625 
L 2419 4116 
z
M 2253 4666 
L 3047 4666 
L 3047 1625 
L 3713 1625 
L 3713 1100 
L 3047 1100 
L 3047 0 
L 2419 0 
L 2419 1100 
L 313 1100 
L 313 1709 
L 2253 4666 
z
" transform="scale(0.015625)"/>
       </defs>
       <use xlink:href="#DejaVuSans-32"/>
       <use xlink:href="#DejaVuSans-30" x="63.623047"/>
       <use xlink:href="#DejaVuSans-30" x="127.246094"/>
       <use xlink:href="#DejaVuSans-34" x="190.869141"/>
      </g>
     </g>
    </g>
    <g id="xtick_6">
     <g id="line2d_6">
      <g>
       <use xlink:href="#mba1a3cedab" x="151.593753" y="289.28254" style="stroke: #000000; stroke-width: 0.8"/>
      </g>
     </g>
     <g id="text_6">
      <!-- 2005 -->
      <g transform="translate(144.546992 319.651314) rotate(-45) scale(0.1 -0.1)">
       <defs>
        <path id="DejaVuSans-35" d="M 691 4666 
L 3169 4666 
L 3169 4134 
L 1269 4134 
L 1269 2991 
Q 1406 3038 1543 3061 
Q 1681 3084 1819 3084 
Q 2600 3084 3056 2656 
Q 3513 2228 3513 1497 
Q 3513 744 3044 326 
Q 2575 -91 1722 -91 
Q 1428 -91 1123 -41 
Q 819 9 494 109 
L 494 744 
Q 775 591 1075 516 
Q 1375 441 1709 441 
Q 2250 441 2565 725 
Q 2881 1009 2881 1497 
Q 2881 1984 2565 2268 
Q 2250 2553 1709 2553 
Q 1456 2553 1204 2497 
Q 953 2441 691 2322 
L 691 4666 
z
" transform="scale(0.015625)"/>
       </defs>
       <use xlink:href="#DejaVuSans-32"/>
       <use xlink:href="#DejaVuSans-30" x="63.623047"/>
       <use xlink:href="#DejaVuSans-30" x="127.246094"/>
       <use xlink:href="#DejaVuSans-35" x="190.869141"/>
      </g>
     </g>
    </g>
    <g id="xtick_7">
     <g id="line2d_7">
      <g>
       <use xlink:href="#mba1a3cedab" x="167.176325" y="289.28254" style="stroke: #000000; stroke-width: 0.8"/>
      </g>
     </g>
     <g id="text_7">
      <!-- 2006 -->
      <g transform="translate(160.129564 319.651314) rotate(-45) scale(0.1 -0.1)">
       <defs>
        <path id="DejaVuSans-36" d="M 2113 2584 
Q 1688 2584 1439 2293 
Q 1191 2003 1191 1497 
Q 1191 994 1439 701 
Q 1688 409 2113 409 
Q 2538 409 2786 701 
Q 3034 994 3034 1497 
Q 3034 2003 2786 2293 
Q 2538 2584 2113 2584 
z
M 3366 4563 
L 3366 3988 
Q 3128 4100 2886 4159 
Q 2644 4219 2406 4219 
Q 1781 4219 1451 3797 
Q 1122 3375 1075 2522 
Q 1259 2794 1537 2939 
Q 1816 3084 2150 3084 
Q 2853 3084 3261 2657 
Q 3669 2231 3669 1497 
Q 3669 778 3244 343 
Q 2819 -91 2113 -91 
Q 1303 -91 875 529 
Q 447 1150 447 2328 
Q 447 3434 972 4092 
Q 1497 4750 2381 4750 
Q 2619 4750 2861 4703 
Q 3103 4656 3366 4563 
z
" transform="scale(0.015625)"/>
       </defs>
       <use xlink:href="#DejaVuSans-32"/>
       <use xlink:href="#DejaVuSans-30" x="63.623047"/>
       <use xlink:href="#DejaVuSans-30" x="127.246094"/>
       <use xlink:href="#DejaVuSans-36" x="190.869141"/>
      </g>
     </g>
    </g>
    <g id="xtick_8">
     <g id="line2d_8">
      <g>
       <use xlink:href="#mba1a3cedab" x="182.758896" y="289.28254" style="stroke: #000000; stroke-width: 0.8"/>
      </g>
     </g>
     <g id="text_8">
      <!-- 2007 -->
      <g transform="translate(175.712135 319.651314) rotate(-45) scale(0.1 -0.1)">
       <defs>
        <path id="DejaVuSans-37" d="M 525 4666 
L 3525 4666 
L 3525 4397 
L 1831 0 
L 1172 0 
L 2766 4134 
L 525 4134 
L 525 4666 
z
" transform="scale(0.015625)"/>
       </defs>
       <use xlink:href="#DejaVuSans-32"/>
       <use xlink:href="#DejaVuSans-30" x="63.623047"/>
       <use xlink:href="#DejaVuSans-30" x="127.246094"/>
       <use xlink:href="#DejaVuSans-37" x="190.869141"/>
      </g>
     </g>
    </g>
    <g id="xtick_9">
     <g id="line2d_9">
      <g>
       <use xlink:href="#mba1a3cedab" x="198.341468" y="289.28254" style="stroke: #000000; stroke-width: 0.8"/>
      </g>
     </g>
     <g id="text_9">
      <!-- 2008 -->
      <g transform="translate(191.294707 319.651314) rotate(-45) scale(0.1 -0.1)">
       <defs>
        <path id="DejaVuSans-38" d="M 2034 2216 
Q 1584 2216 1326 1975 
Q 1069 1734 1069 1313 
Q 1069 891 1326 650 
Q 1584 409 2034 409 
Q 2484 409 2743 651 
Q 3003 894 3003 1313 
Q 3003 1734 2745 1975 
Q 2488 2216 2034 2216 
z
M 1403 2484 
Q 997 2584 770 2862 
Q 544 3141 544 3541 
Q 544 4100 942 4425 
Q 1341 4750 2034 4750 
Q 2731 4750 3128 4425 
Q 3525 4100 3525 3541 
Q 3525 3141 3298 2862 
Q 3072 2584 2669 2484 
Q 3125 2378 3379 2068 
Q 3634 1759 3634 1313 
Q 3634 634 3220 271 
Q 2806 -91 2034 -91 
Q 1263 -91 848 271 
Q 434 634 434 1313 
Q 434 1759 690 2068 
Q 947 2378 1403 2484 
z
M 1172 3481 
Q 1172 3119 1398 2916 
Q 1625 2713 2034 2713 
Q 2441 2713 2670 2916 
Q 2900 3119 2900 3481 
Q 2900 3844 2670 4047 
Q 2441 4250 2034 4250 
Q 1625 4250 1398 4047 
Q 1172 3844 1172 3481 
z
" transform="scale(0.015625)"/>
       </defs>
       <use xlink:href="#DejaVuSans-32"/>
       <use xlink:href="#DejaVuSans-30" x="63.623047"/>
       <use xlink:href="#DejaVuSans-30" x="127.246094"/>
       <use xlink:href="#DejaVuSans-38" x="190.869141"/>
      </g>
     </g>
    </g>
    <g id="xtick_10">
     <g id="line2d_10">
      <g>
       <use xlink:href="#mba1a3cedab" x="213.92404" y="289.28254" style="stroke: #000000; stroke-width: 0.8"/>
      </g>
     </g>
     <g id="text_10">
      <!-- 2009 -->
      <g transform="translate(206.877279 319.651314) rotate(-45) scale(0.1 -0.1)">
       <defs>
        <path id="DejaVuSans-39" d="M 703 97 
L 703 672 
Q 941 559 1184 500 
Q 1428 441 1663 441 
Q 2288 441 2617 861 
Q 2947 1281 2994 2138 
Q 2813 1869 2534 1725 
Q 2256 1581 1919 1581 
Q 1219 1581 811 2004 
Q 403 2428 403 3163 
Q 403 3881 828 4315 
Q 1253 4750 1959 4750 
Q 2769 4750 3195 4129 
Q 3622 3509 3622 2328 
Q 3622 1225 3098 567 
Q 2575 -91 1691 -91 
Q 1453 -91 1209 -44 
Q 966 3 703 97 
z
M 1959 2075 
Q 2384 2075 2632 2365 
Q 2881 2656 2881 3163 
Q 2881 3666 2632 3958 
Q 2384 4250 1959 4250 
Q 1534 4250 1286 3958 
Q 1038 3666 1038 3163 
Q 1038 2656 1286 2365 
Q 1534 2075 1959 2075 
z
" transform="scale(0.015625)"/>
       </defs>
       <use xlink:href="#DejaVuSans-32"/>
       <use xlink:href="#DejaVuSans-30" x="63.623047"/>
       <use xlink:href="#DejaVuSans-30" x="127.246094"/>
       <use xlink:href="#DejaVuSans-39" x="190.869141"/>
      </g>
     </g>
    </g>
    <g id="xtick_11">
     <g id="line2d_11">
      <g>
       <use xlink:href="#mba1a3cedab" x="229.506611" y="289.28254" style="stroke: #000000; stroke-width: 0.8"/>
      </g>
     </g>
     <g id="text_11">
      <!-- 2010 -->
      <g transform="translate(222.45985 319.651314) rotate(-45) scale(0.1 -0.1)">
       <use xlink:href="#DejaVuSans-32"/>
       <use xlink:href="#DejaVuSans-30" x="63.623047"/>
       <use xlink:href="#DejaVuSans-31" x="127.246094"/>
       <use xlink:href="#DejaVuSans-30" x="190.869141"/>
      </g>
     </g>
    </g>
    <g id="xtick_12">
     <g id="line2d_12">
      <g>
       <use xlink:href="#mba1a3cedab" x="245.089183" y="289.28254" style="stroke: #000000; stroke-width: 0.8"/>
      </g>
     </g>
     <g id="text_12">
      <!-- 2011 -->
      <g transform="translate(238.042422 319.651314) rotate(-45) scale(0.1 -0.1)">
       <use xlink:href="#DejaVuSans-32"/>
       <use xlink:href="#DejaVuSans-30" x="63.623047"/>
       <use xlink:href="#DejaVuSans-31" x="127.246094"/>
       <use xlink:href="#DejaVuSans-31" x="190.869141"/>
      </g>
     </g>
    </g>
    <g id="xtick_13">
     <g id="line2d_13">
      <g>
       <use xlink:href="#mba1a3cedab" x="260.671755" y="289.28254" style="stroke: #000000; stroke-width: 0.8"/>
      </g>
     </g>
     <g id="text_13">
      <!-- 2012 -->
      <g transform="translate(253.624994 319.651314) rotate(-45) scale(0.1 -0.1)">
       <use xlink:href="#DejaVuSans-32"/>
       <use xlink:href="#DejaVuSans-30" x="63.623047"/>
       <use xlink:href="#DejaVuSans-31" x="127.246094"/>
       <use xlink:href="#DejaVuSans-32" x="190.869141"/>
      </g>
     </g>
    </g>
    <g id="xtick_14">
     <g id="line2d_14">
      <g>
       <use xlink:href="#mba1a3cedab" x="276.254326" y="289.28254" style="stroke: #000000; stroke-width: 0.8"/>
      </g>
     </g>
     <g id="text_14">
      <!-- 2013 -->
      <g transform="translate(269.207565 319.651314) rotate(-45) scale(0.1 -0.1)">
       <use xlink:href="#DejaVuSans-32"/>
       <use xlink:href="#DejaVuSans-30" x="63.623047"/>
       <use xlink:href="#DejaVuSans-31" x="127.246094"/>
       <use xlink:href="#DejaVuSans-33" x="190.869141"/>
      </g>
     </g>
    </g>
    <g id="xtick_15">
     <g id="line2d_15">
      <g>
       <use xlink:href="#mba1a3cedab" x="291.836898" y="289.28254" style="stroke: #000000; stroke-width: 0.8"/>
      </g>
     </g>
     <g id="text_15">
      <!-- 2014 -->
      <g transform="translate(284.790137 319.651314) rotate(-45) scale(0.1 -0.1)">
       <use xlink:href="#DejaVuSans-32"/>
       <use xlink:href="#DejaVuSans-30" x="63.623047"/>
       <use xlink:href="#DejaVuSans-31" x="127.246094"/>
       <use xlink:href="#DejaVuSans-34" x="190.869141"/>
      </g>
     </g>
    </g>
    <g id="xtick_16">
     <g id="line2d_16">
      <g>
       <use xlink:href="#mba1a3cedab" x="307.419469" y="289.28254" style="stroke: #000000; stroke-width: 0.8"/>
      </g>
     </g>
     <g id="text_16">
      <!-- 2015 -->
      <g transform="translate(300.372708 319.651314) rotate(-45) scale(0.1 -0.1)">
       <use xlink:href="#DejaVuSans-32"/>
       <use xlink:href="#DejaVuSans-30" x="63.623047"/>
       <use xlink:href="#DejaVuSans-31" x="127.246094"/>
       <use xlink:href="#DejaVuSans-35" x="190.869141"/>
      </g>
     </g>
    </g>
    <g id="xtick_17">
     <g id="line2d_17">
      <g>
       <use xlink:href="#mba1a3cedab" x="323.002041" y="289.28254" style="stroke: #000000; stroke-width: 0.8"/>
      </g>
     </g>
     <g id="text_17">
      <!-- 2016 -->
      <g transform="translate(315.95528 319.651314) rotate(-45) scale(0.1 -0.1)">
       <use xlink:href="#DejaVuSans-32"/>
       <use xlink:href="#DejaVuSans-30" x="63.623047"/>
       <use xlink:href="#DejaVuSans-31" x="127.246094"/>
       <use xlink:href="#DejaVuSans-36" x="190.869141"/>
      </g>
     </g>
    </g>
    <g id="xtick_18">
     <g id="line2d_18">
      <g>
       <use xlink:href="#mba1a3cedab" x="338.584613" y="289.28254" style="stroke: #000000; stroke-width: 0.8"/>
      </g>
     </g>
     <g id="text_18">
      <!-- 2017 -->
      <g transform="translate(331.537852 319.651314) rotate(-45) scale(0.1 -0.1)">
       <use xlink:href="#DejaVuSans-32"/>
       <use xlink:href="#DejaVuSans-30" x="63.623047"/>
       <use xlink:href="#DejaVuSans-31" x="127.246094"/>
       <use xlink:href="#DejaVuSans-37" x="190.869141"/>
      </g>
     </g>
    </g>
    <g id="xtick_19">
     <g id="line2d_19">
      <g>
       <use xlink:href="#mba1a3cedab" x="354.167184" y="289.28254" style="stroke: #000000; stroke-width: 0.8"/>
      </g>
     </g>
     <g id="text_19">
      <!-- 2018 -->
      <g transform="translate(347.120423 319.651314) rotate(-45) scale(0.1 -0.1)">
       <use xlink:href="#DejaVuSans-32"/>
       <use xlink:href="#DejaVuSans-30" x="63.623047"/>
       <use xlink:href="#DejaVuSans-31" x="127.246094"/>
       <use xlink:href="#DejaVuSans-38" x="190.869141"/>
      </g>
     </g>
    </g>
    <g id="xtick_20">
     <g id="line2d_20">
      <g>
       <use xlink:href="#mba1a3cedab" x="369.749756" y="289.28254" style="stroke: #000000; stroke-width: 0.8"/>
      </g>
     </g>
     <g id="text_20">
      <!-- 2019 -->
      <g transform="translate(362.702995 319.651314) rotate(-45) scale(0.1 -0.1)">
       <use xlink:href="#DejaVuSans-32"/>
       <use xlink:href="#DejaVuSans-30" x="63.623047"/>
       <use xlink:href="#DejaVuSans-31" x="127.246094"/>
       <use xlink:href="#DejaVuSans-39" x="190.869141"/>
      </g>
     </g>
    </g>
    <g id="xtick_21">
     <g id="line2d_21">
      <g>
       <use xlink:href="#mba1a3cedab" x="385.332328" y="289.28254" style="stroke: #000000; stroke-width: 0.8"/>
      </g>
     </g>
     <g id="text_21">
      <!-- 2020 -->
      <g transform="translate(378.285567 319.651314) rotate(-45) scale(0.1 -0.1)">
       <use xlink:href="#DejaVuSans-32"/>
       <use xlink:href="#DejaVuSans-30" x="63.623047"/>
       <use xlink:href="#DejaVuSans-32" x="127.246094"/>
       <use xlink:href="#DejaVuSans-30" x="190.869141"/>
      </g>
     </g>
    </g>
    <g id="xtick_22">
     <g id="line2d_22">
      <g>
       <use xlink:href="#mba1a3cedab" x="400.914899" y="289.28254" style="stroke: #000000; stroke-width: 0.8"/>
      </g>
     </g>
     <g id="text_22">
      <!-- 2021 -->
      <g transform="translate(393.868138 319.651314) rotate(-45) scale(0.1 -0.1)">
       <use xlink:href="#DejaVuSans-32"/>
       <use xlink:href="#DejaVuSans-30" x="63.623047"/>
       <use xlink:href="#DejaVuSans-32" x="127.246094"/>
       <use xlink:href="#DejaVuSans-31" x="190.869141"/>
      </g>
     </g>
    </g>
    <g id="xtick_23">
     <g id="line2d_23">
      <g>
       <use xlink:href="#mba1a3cedab" x="416.497471" y="289.28254" style="stroke: #000000; stroke-width: 0.8"/>
      </g>
     </g>
     <g id="text_23">
      <!-- 2022 -->
      <g transform="translate(409.45071 319.651314) rotate(-45) scale(0.1 -0.1)">
       <use xlink:href="#DejaVuSans-32"/>
       <use xlink:href="#DejaVuSans-30" x="63.623047"/>
       <use xlink:href="#DejaVuSans-32" x="127.246094"/>
       <use xlink:href="#DejaVuSans-32" x="190.869141"/>
      </g>
     </g>
    </g>
    <g id="xtick_24">
     <g id="line2d_24">
      <g>
       <use xlink:href="#mba1a3cedab" x="432.080043" y="289.28254" style="stroke: #000000; stroke-width: 0.8"/>
      </g>
     </g>
     <g id="text_24">
      <!-- 2023 -->
      <g transform="translate(425.033282 319.651314) rotate(-45) scale(0.1 -0.1)">
       <use xlink:href="#DejaVuSans-32"/>
       <use xlink:href="#DejaVuSans-30" x="63.623047"/>
       <use xlink:href="#DejaVuSans-32" x="127.246094"/>
       <use xlink:href="#DejaVuSans-33" x="190.869141"/>
      </g>
     </g>
    </g>
    <g id="text_25">
     <!-- Year -->
     <g transform="translate(242.292969 332.720312) scale(0.1 -0.1)">
      <defs>
       <path id="DejaVuSans-59" d="M -13 4666 
L 666 4666 
L 1959 2747 
L 3244 4666 
L 3922 4666 
L 2272 2222 
L 2272 0 
L 1638 0 
L 1638 2222 
L -13 4666 
z
" transform="scale(0.015625)"/>
       <path id="DejaVuSans-65" d="M 3597 1894 
L 3597 1613 
L 953 1613 
Q 991 1019 1311 708 
Q 1631 397 2203 397 
Q 2534 397 2845 478 
Q 3156 559 3463 722 
L 3463 178 
Q 3153 47 2828 -22 
Q 2503 -91 2169 -91 
Q 1331 -91 842 396 
Q 353 884 353 1716 
Q 353 2575 817 3079 
Q 1281 3584 2069 3584 
Q 2775 3584 3186 3129 
Q 3597 2675 3597 1894 
z
M 3022 2063 
Q 3016 2534 2758 2815 
Q 2500 3097 2075 3097 
Q 1594 3097 1305 2825 
Q 1016 2553 972 2059 
L 3022 2063 
z
" transform="scale(0.015625)"/>
       <path id="DejaVuSans-61" d="M 2194 1759 
Q 1497 1759 1228 1600 
Q 959 1441 959 1056 
Q 959 750 1161 570 
Q 1363 391 1709 391 
Q 2188 391 2477 730 
Q 2766 1069 2766 1631 
L 2766 1759 
L 2194 1759 
z
M 3341 1997 
L 3341 0 
L 2766 0 
L 2766 531 
Q 2569 213 2275 61 
Q 1981 -91 1556 -91 
Q 1019 -91 701 211 
Q 384 513 384 1019 
Q 384 1609 779 1909 
Q 1175 2209 1959 2209 
L 2766 2209 
L 2766 2266 
Q 2766 2663 2505 2880 
Q 2244 3097 1772 3097 
Q 1472 3097 1187 3025 
Q 903 2953 641 2809 
L 641 3341 
Q 956 3463 1253 3523 
Q 1550 3584 1831 3584 
Q 2591 3584 2966 3190 
Q 3341 2797 3341 1997 
z
" transform="scale(0.015625)"/>
       <path id="DejaVuSans-72" d="M 2631 2963 
Q 2534 3019 2420 3045 
Q 2306 3072 2169 3072 
Q 1681 3072 1420 2755 
Q 1159 2438 1159 1844 
L 1159 0 
L 581 0 
L 581 3500 
L 1159 3500 
L 1159 2956 
Q 1341 3275 1631 3429 
Q 1922 3584 2338 3584 
Q 2397 3584 2469 3576 
Q 2541 3569 2628 3553 
L 2631 2963 
z
" transform="scale(0.015625)"/>
      </defs>
      <use xlink:href="#DejaVuSans-59"/>
      <use xlink:href="#DejaVuSans-65" x="47.833984"/>
      <use xlink:href="#DejaVuSans-61" x="109.357422"/>
      <use xlink:href="#DejaVuSans-72" x="170.636719"/>
     </g>
    </g>
   </g>
   <g id="matplotlib.axis_2">
    <g id="ytick_1">
     <g id="line2d_25">
      <path d="M 55.760938 277.31143 
L 450 277.31143 
" clip-path="url(#p271414b07c)" style="fill: none; stroke-dasharray: 2.96,1.28; stroke-dashoffset: 0; stroke: #b0b0b0; stroke-opacity: 0.5; stroke-width: 0.8"/>
     </g>
     <g id="line2d_26">
      <defs>
       <path id="mfdfde9e0fe" d="M 0 0 
L -3.5 0 
" style="stroke: #000000; stroke-width: 0.8"/>
      </defs>
      <g>
       <use xlink:href="#mfdfde9e0fe" x="55.760938" y="277.31143" style="stroke: #000000; stroke-width: 0.8"/>
      </g>
     </g>
     <g id="text_26">
      <!-- −3.9 -->
      <g transform="translate(24.478125 281.110649) scale(0.1 -0.1)">
       <defs>
        <path id="DejaVuSans-2212" d="M 678 2272 
L 4684 2272 
L 4684 1741 
L 678 1741 
L 678 2272 
z
" transform="scale(0.015625)"/>
        <path id="DejaVuSans-2e" d="M 684 794 
L 1344 794 
L 1344 0 
L 684 0 
L 684 794 
z
" transform="scale(0.015625)"/>
       </defs>
       <use xlink:href="#DejaVuSans-2212"/>
       <use xlink:href="#DejaVuSans-33" x="83.789062"/>
       <use xlink:href="#DejaVuSans-2e" x="147.412109"/>
       <use xlink:href="#DejaVuSans-39" x="179.199219"/>
      </g>
     </g>
    </g>
    <g id="ytick_2">
     <g id="line2d_27">
      <path d="M 55.760938 254.066557 
L 450 254.066557 
" clip-path="url(#p271414b07c)" style="fill: none; stroke-dasharray: 2.96,1.28; stroke-dashoffset: 0; stroke: #b0b0b0; stroke-opacity: 0.5; stroke-width: 0.8"/>
     </g>
     <g id="line2d_28">
      <g>
       <use xlink:href="#mfdfde9e0fe" x="55.760938" y="254.066557" style="stroke: #000000; stroke-width: 0.8"/>
      </g>
     </g>
     <g id="text_27">
      <!-- −1.9 -->
      <g transform="translate(24.478125 257.865775) scale(0.1 -0.1)">
       <use xlink:href="#DejaVuSans-2212"/>
       <use xlink:href="#DejaVuSans-31" x="83.789062"/>
       <use xlink:href="#DejaVuSans-2e" x="147.412109"/>
       <use xlink:href="#DejaVuSans-39" x="179.199219"/>
      </g>
     </g>
    </g>
    <g id="ytick_3">
     <g id="line2d_29">
      <path d="M 55.760938 230.821683 
L 450 230.821683 
" clip-path="url(#p271414b07c)" style="fill: none; stroke-dasharray: 2.96,1.28; stroke-dashoffset: 0; stroke: #b0b0b0; stroke-opacity: 0.5; stroke-width: 0.8"/>
     </g>
     <g id="line2d_30">
      <g>
       <use xlink:href="#mfdfde9e0fe" x="55.760938" y="230.821683" style="stroke: #000000; stroke-width: 0.8"/>
      </g>
     </g>
     <g id="text_28">
      <!-- 0.1 -->
      <g transform="translate(32.857813 234.620902) scale(0.1 -0.1)">
       <use xlink:href="#DejaVuSans-30"/>
       <use xlink:href="#DejaVuSans-2e" x="63.623047"/>
       <use xlink:href="#DejaVuSans-31" x="95.410156"/>
      </g>
     </g>
    </g>
    <g id="ytick_4">
     <g id="line2d_31">
      <path d="M 55.760938 207.57681 
L 450 207.57681 
" clip-path="url(#p271414b07c)" style="fill: none; stroke-dasharray: 2.96,1.28; stroke-dashoffset: 0; stroke: #b0b0b0; stroke-opacity: 0.5; stroke-width: 0.8"/>
     </g>
     <g id="line2d_32">
      <g>
       <use xlink:href="#mfdfde9e0fe" x="55.760938" y="207.57681" style="stroke: #000000; stroke-width: 0.8"/>
      </g>
     </g>
     <g id="text_29">
      <!-- 2.1 -->
      <g transform="translate(32.857813 211.376029) scale(0.1 -0.1)">
       <use xlink:href="#DejaVuSans-32"/>
       <use xlink:href="#DejaVuSans-2e" x="63.623047"/>
       <use xlink:href="#DejaVuSans-31" x="95.410156"/>
      </g>
     </g>
    </g>
    <g id="ytick_5">
     <g id="line2d_33">
      <path d="M 55.760938 184.331937 
L 450 184.331937 
" clip-path="url(#p271414b07c)" style="fill: none; stroke-dasharray: 2.96,1.28; stroke-dashoffset: 0; stroke: #b0b0b0; stroke-opacity: 0.5; stroke-width: 0.8"/>
     </g>
     <g id="line2d_34">
      <g>
       <use xlink:href="#mfdfde9e0fe" x="55.760938" y="184.331937" style="stroke: #000000; stroke-width: 0.8"/>
      </g>
     </g>
     <g id="text_30">
      <!-- 4.1 -->
      <g transform="translate(32.857813 188.131155) scale(0.1 -0.1)">
       <use xlink:href="#DejaVuSans-34"/>
       <use xlink:href="#DejaVuSans-2e" x="63.623047"/>
       <use xlink:href="#DejaVuSans-31" x="95.410156"/>
      </g>
     </g>
    </g>
    <g id="ytick_6">
     <g id="line2d_35">
      <path d="M 55.760938 161.087063 
L 450 161.087063 
" clip-path="url(#p271414b07c)" style="fill: none; stroke-dasharray: 2.96,1.28; stroke-dashoffset: 0; stroke: #b0b0b0; stroke-opacity: 0.5; stroke-width: 0.8"/>
     </g>
     <g id="line2d_36">
      <g>
       <use xlink:href="#mfdfde9e0fe" x="55.760938" y="161.087063" style="stroke: #000000; stroke-width: 0.8"/>
      </g>
     </g>
     <g id="text_31">
      <!-- 6.1 -->
      <g transform="translate(32.857813 164.886282) scale(0.1 -0.1)">
       <use xlink:href="#DejaVuSans-36"/>
       <use xlink:href="#DejaVuSans-2e" x="63.623047"/>
       <use xlink:href="#DejaVuSans-31" x="95.410156"/>
      </g>
     </g>
    </g>
    <g id="ytick_7">
     <g id="line2d_37">
      <path d="M 55.760938 137.84219 
L 450 137.84219 
" clip-path="url(#p271414b07c)" style="fill: none; stroke-dasharray: 2.96,1.28; stroke-dashoffset: 0; stroke: #b0b0b0; stroke-opacity: 0.5; stroke-width: 0.8"/>
     </g>
     <g id="line2d_38">
      <g>
       <use xlink:href="#mfdfde9e0fe" x="55.760938" y="137.84219" style="stroke: #000000; stroke-width: 0.8"/>
      </g>
     </g>
     <g id="text_32">
      <!-- 8.1 -->
      <g transform="translate(32.857813 141.641409) scale(0.1 -0.1)">
       <use xlink:href="#DejaVuSans-38"/>
       <use xlink:href="#DejaVuSans-2e" x="63.623047"/>
       <use xlink:href="#DejaVuSans-31" x="95.410156"/>
      </g>
     </g>
    </g>
    <g id="ytick_8">
     <g id="line2d_39">
      <path d="M 55.760938 114.597317 
L 450 114.597317 
" clip-path="url(#p271414b07c)" style="fill: none; stroke-dasharray: 2.96,1.28; stroke-dashoffset: 0; stroke: #b0b0b0; stroke-opacity: 0.5; stroke-width: 0.8"/>
     </g>
     <g id="line2d_40">
      <g>
       <use xlink:href="#mfdfde9e0fe" x="55.760938" y="114.597317" style="stroke: #000000; stroke-width: 0.8"/>
      </g>
     </g>
     <g id="text_33">
      <!-- 10.1 -->
      <g transform="translate(26.495313 118.396535) scale(0.1 -0.1)">
       <use xlink:href="#DejaVuSans-31"/>
       <use xlink:href="#DejaVuSans-30" x="63.623047"/>
       <use xlink:href="#DejaVuSans-2e" x="127.246094"/>
       <use xlink:href="#DejaVuSans-31" x="159.033203"/>
      </g>
     </g>
    </g>
    <g id="ytick_9">
     <g id="line2d_41">
      <path d="M 55.760938 91.352443 
L 450 91.352443 
" clip-path="url(#p271414b07c)" style="fill: none; stroke-dasharray: 2.96,1.28; stroke-dashoffset: 0; stroke: #b0b0b0; stroke-opacity: 0.5; stroke-width: 0.8"/>
     </g>
     <g id="line2d_42">
      <g>
       <use xlink:href="#mfdfde9e0fe" x="55.760938" y="91.352443" style="stroke: #000000; stroke-width: 0.8"/>
      </g>
     </g>
     <g id="text_34">
      <!-- 12.1 -->
      <g transform="translate(26.495313 95.151662) scale(0.1 -0.1)">
       <use xlink:href="#DejaVuSans-31"/>
       <use xlink:href="#DejaVuSans-32" x="63.623047"/>
       <use xlink:href="#DejaVuSans-2e" x="127.246094"/>
       <use xlink:href="#DejaVuSans-31" x="159.033203"/>
      </g>
     </g>
    </g>
    <g id="ytick_10">
     <g id="line2d_43">
      <path d="M 55.760938 68.10757 
L 450 68.10757 
" clip-path="url(#p271414b07c)" style="fill: none; stroke-dasharray: 2.96,1.28; stroke-dashoffset: 0; stroke: #b0b0b0; stroke-opacity: 0.5; stroke-width: 0.8"/>
     </g>
     <g id="line2d_44">
      <g>
       <use xlink:href="#mfdfde9e0fe" x="55.760938" y="68.10757" style="stroke: #000000; stroke-width: 0.8"/>
      </g>
     </g>
     <g id="text_35">
      <!-- 14.1 -->
      <g transform="translate(26.495313 71.906789) scale(0.1 -0.1)">
       <use xlink:href="#DejaVuSans-31"/>
       <use xlink:href="#DejaVuSans-34" x="63.623047"/>
       <use xlink:href="#DejaVuSans-2e" x="127.246094"/>
       <use xlink:href="#DejaVuSans-31" x="159.033203"/>
      </g>
     </g>
    </g>
    <g id="ytick_11">
     <g id="line2d_45">
      <path d="M 55.760938 44.862697 
L 450 44.862697 
" clip-path="url(#p271414b07c)" style="fill: none; stroke-dasharray: 2.96,1.28; stroke-dashoffset: 0; stroke: #b0b0b0; stroke-opacity: 0.5; stroke-width: 0.8"/>
     </g>
     <g id="line2d_46">
      <g>
       <use xlink:href="#mfdfde9e0fe" x="55.760938" y="44.862697" style="stroke: #000000; stroke-width: 0.8"/>
      </g>
     </g>
     <g id="text_36">
      <!-- 16.1 -->
      <g transform="translate(26.495313 48.661915) scale(0.1 -0.1)">
       <use xlink:href="#DejaVuSans-31"/>
       <use xlink:href="#DejaVuSans-36" x="63.623047"/>
       <use xlink:href="#DejaVuSans-2e" x="127.246094"/>
       <use xlink:href="#DejaVuSans-31" x="159.033203"/>
      </g>
     </g>
    </g>
    <g id="text_37">
     <!-- Consumer price difference from previous year (%) -->
     <g transform="translate(18.398437 283.064395) rotate(-90) scale(0.1 -0.1)">
      <defs>
       <path id="DejaVuSans-43" d="M 4122 4306 
L 4122 3641 
Q 3803 3938 3442 4084 
Q 3081 4231 2675 4231 
Q 1875 4231 1450 3742 
Q 1025 3253 1025 2328 
Q 1025 1406 1450 917 
Q 1875 428 2675 428 
Q 3081 428 3442 575 
Q 3803 722 4122 1019 
L 4122 359 
Q 3791 134 3420 21 
Q 3050 -91 2638 -91 
Q 1578 -91 968 557 
Q 359 1206 359 2328 
Q 359 3453 968 4101 
Q 1578 4750 2638 4750 
Q 3056 4750 3426 4639 
Q 3797 4528 4122 4306 
z
" transform="scale(0.015625)"/>
       <path id="DejaVuSans-6f" d="M 1959 3097 
Q 1497 3097 1228 2736 
Q 959 2375 959 1747 
Q 959 1119 1226 758 
Q 1494 397 1959 397 
Q 2419 397 2687 759 
Q 2956 1122 2956 1747 
Q 2956 2369 2687 2733 
Q 2419 3097 1959 3097 
z
M 1959 3584 
Q 2709 3584 3137 3096 
Q 3566 2609 3566 1747 
Q 3566 888 3137 398 
Q 2709 -91 1959 -91 
Q 1206 -91 779 398 
Q 353 888 353 1747 
Q 353 2609 779 3096 
Q 1206 3584 1959 3584 
z
" transform="scale(0.015625)"/>
       <path id="DejaVuSans-6e" d="M 3513 2113 
L 3513 0 
L 2938 0 
L 2938 2094 
Q 2938 2591 2744 2837 
Q 2550 3084 2163 3084 
Q 1697 3084 1428 2787 
Q 1159 2491 1159 1978 
L 1159 0 
L 581 0 
L 581 3500 
L 1159 3500 
L 1159 2956 
Q 1366 3272 1645 3428 
Q 1925 3584 2291 3584 
Q 2894 3584 3203 3211 
Q 3513 2838 3513 2113 
z
" transform="scale(0.015625)"/>
       <path id="DejaVuSans-73" d="M 2834 3397 
L 2834 2853 
Q 2591 2978 2328 3040 
Q 2066 3103 1784 3103 
Q 1356 3103 1142 2972 
Q 928 2841 928 2578 
Q 928 2378 1081 2264 
Q 1234 2150 1697 2047 
L 1894 2003 
Q 2506 1872 2764 1633 
Q 3022 1394 3022 966 
Q 3022 478 2636 193 
Q 2250 -91 1575 -91 
Q 1294 -91 989 -36 
Q 684 19 347 128 
L 347 722 
Q 666 556 975 473 
Q 1284 391 1588 391 
Q 1994 391 2212 530 
Q 2431 669 2431 922 
Q 2431 1156 2273 1281 
Q 2116 1406 1581 1522 
L 1381 1569 
Q 847 1681 609 1914 
Q 372 2147 372 2553 
Q 372 3047 722 3315 
Q 1072 3584 1716 3584 
Q 2034 3584 2315 3537 
Q 2597 3491 2834 3397 
z
" transform="scale(0.015625)"/>
       <path id="DejaVuSans-75" d="M 544 1381 
L 544 3500 
L 1119 3500 
L 1119 1403 
Q 1119 906 1312 657 
Q 1506 409 1894 409 
Q 2359 409 2629 706 
Q 2900 1003 2900 1516 
L 2900 3500 
L 3475 3500 
L 3475 0 
L 2900 0 
L 2900 538 
Q 2691 219 2414 64 
Q 2138 -91 1772 -91 
Q 1169 -91 856 284 
Q 544 659 544 1381 
z
M 1991 3584 
L 1991 3584 
z
" transform="scale(0.015625)"/>
       <path id="DejaVuSans-6d" d="M 3328 2828 
Q 3544 3216 3844 3400 
Q 4144 3584 4550 3584 
Q 5097 3584 5394 3201 
Q 5691 2819 5691 2113 
L 5691 0 
L 5113 0 
L 5113 2094 
Q 5113 2597 4934 2840 
Q 4756 3084 4391 3084 
Q 3944 3084 3684 2787 
Q 3425 2491 3425 1978 
L 3425 0 
L 2847 0 
L 2847 2094 
Q 2847 2600 2669 2842 
Q 2491 3084 2119 3084 
Q 1678 3084 1418 2786 
Q 1159 2488 1159 1978 
L 1159 0 
L 581 0 
L 581 3500 
L 1159 3500 
L 1159 2956 
Q 1356 3278 1631 3431 
Q 1906 3584 2284 3584 
Q 2666 3584 2933 3390 
Q 3200 3197 3328 2828 
z
" transform="scale(0.015625)"/>
       <path id="DejaVuSans-20" transform="scale(0.015625)"/>
       <path id="DejaVuSans-70" d="M 1159 525 
L 1159 -1331 
L 581 -1331 
L 581 3500 
L 1159 3500 
L 1159 2969 
Q 1341 3281 1617 3432 
Q 1894 3584 2278 3584 
Q 2916 3584 3314 3078 
Q 3713 2572 3713 1747 
Q 3713 922 3314 415 
Q 2916 -91 2278 -91 
Q 1894 -91 1617 61 
Q 1341 213 1159 525 
z
M 3116 1747 
Q 3116 2381 2855 2742 
Q 2594 3103 2138 3103 
Q 1681 3103 1420 2742 
Q 1159 2381 1159 1747 
Q 1159 1113 1420 752 
Q 1681 391 2138 391 
Q 2594 391 2855 752 
Q 3116 1113 3116 1747 
z
" transform="scale(0.015625)"/>
       <path id="DejaVuSans-69" d="M 603 3500 
L 1178 3500 
L 1178 0 
L 603 0 
L 603 3500 
z
M 603 4863 
L 1178 4863 
L 1178 4134 
L 603 4134 
L 603 4863 
z
" transform="scale(0.015625)"/>
       <path id="DejaVuSans-63" d="M 3122 3366 
L 3122 2828 
Q 2878 2963 2633 3030 
Q 2388 3097 2138 3097 
Q 1578 3097 1268 2742 
Q 959 2388 959 1747 
Q 959 1106 1268 751 
Q 1578 397 2138 397 
Q 2388 397 2633 464 
Q 2878 531 3122 666 
L 3122 134 
Q 2881 22 2623 -34 
Q 2366 -91 2075 -91 
Q 1284 -91 818 406 
Q 353 903 353 1747 
Q 353 2603 823 3093 
Q 1294 3584 2113 3584 
Q 2378 3584 2631 3529 
Q 2884 3475 3122 3366 
z
" transform="scale(0.015625)"/>
       <path id="DejaVuSans-64" d="M 2906 2969 
L 2906 4863 
L 3481 4863 
L 3481 0 
L 2906 0 
L 2906 525 
Q 2725 213 2448 61 
Q 2172 -91 1784 -91 
Q 1150 -91 751 415 
Q 353 922 353 1747 
Q 353 2572 751 3078 
Q 1150 3584 1784 3584 
Q 2172 3584 2448 3432 
Q 2725 3281 2906 2969 
z
M 947 1747 
Q 947 1113 1208 752 
Q 1469 391 1925 391 
Q 2381 391 2643 752 
Q 2906 1113 2906 1747 
Q 2906 2381 2643 2742 
Q 2381 3103 1925 3103 
Q 1469 3103 1208 2742 
Q 947 2381 947 1747 
z
" transform="scale(0.015625)"/>
       <path id="DejaVuSans-66" d="M 2375 4863 
L 2375 4384 
L 1825 4384 
Q 1516 4384 1395 4259 
Q 1275 4134 1275 3809 
L 1275 3500 
L 2222 3500 
L 2222 3053 
L 1275 3053 
L 1275 0 
L 697 0 
L 697 3053 
L 147 3053 
L 147 3500 
L 697 3500 
L 697 3744 
Q 697 4328 969 4595 
Q 1241 4863 1831 4863 
L 2375 4863 
z
" transform="scale(0.015625)"/>
       <path id="DejaVuSans-76" d="M 191 3500 
L 800 3500 
L 1894 563 
L 2988 3500 
L 3597 3500 
L 2284 0 
L 1503 0 
L 191 3500 
z
" transform="scale(0.015625)"/>
       <path id="DejaVuSans-79" d="M 2059 -325 
Q 1816 -950 1584 -1140 
Q 1353 -1331 966 -1331 
L 506 -1331 
L 506 -850 
L 844 -850 
Q 1081 -850 1212 -737 
Q 1344 -625 1503 -206 
L 1606 56 
L 191 3500 
L 800 3500 
L 1894 763 
L 2988 3500 
L 3597 3500 
L 2059 -325 
z
" transform="scale(0.015625)"/>
       <path id="DejaVuSans-28" d="M 1984 4856 
Q 1566 4138 1362 3434 
Q 1159 2731 1159 2009 
Q 1159 1288 1364 580 
Q 1569 -128 1984 -844 
L 1484 -844 
Q 1016 -109 783 600 
Q 550 1309 550 2009 
Q 550 2706 781 3412 
Q 1013 4119 1484 4856 
L 1984 4856 
z
" transform="scale(0.015625)"/>
       <path id="DejaVuSans-25" d="M 4653 2053 
Q 4381 2053 4226 1822 
Q 4072 1591 4072 1178 
Q 4072 772 4226 539 
Q 4381 306 4653 306 
Q 4919 306 5073 539 
Q 5228 772 5228 1178 
Q 5228 1588 5073 1820 
Q 4919 2053 4653 2053 
z
M 4653 2450 
Q 5147 2450 5437 2106 
Q 5728 1763 5728 1178 
Q 5728 594 5436 251 
Q 5144 -91 4653 -91 
Q 4153 -91 3862 251 
Q 3572 594 3572 1178 
Q 3572 1766 3864 2108 
Q 4156 2450 4653 2450 
z
M 1428 4353 
Q 1159 4353 1004 4120 
Q 850 3888 850 3481 
Q 850 3069 1003 2837 
Q 1156 2606 1428 2606 
Q 1700 2606 1854 2837 
Q 2009 3069 2009 3481 
Q 2009 3884 1853 4118 
Q 1697 4353 1428 4353 
z
M 4250 4750 
L 4750 4750 
L 1831 -91 
L 1331 -91 
L 4250 4750 
z
M 1428 4750 
Q 1922 4750 2215 4408 
Q 2509 4066 2509 3481 
Q 2509 2891 2217 2550 
Q 1925 2209 1428 2209 
Q 931 2209 642 2551 
Q 353 2894 353 3481 
Q 353 4063 643 4406 
Q 934 4750 1428 4750 
z
" transform="scale(0.015625)"/>
       <path id="DejaVuSans-29" d="M 513 4856 
L 1013 4856 
Q 1481 4119 1714 3412 
Q 1947 2706 1947 2009 
Q 1947 1309 1714 600 
Q 1481 -109 1013 -844 
L 513 -844 
Q 928 -128 1133 580 
Q 1338 1288 1338 2009 
Q 1338 2731 1133 3434 
Q 928 4138 513 4856 
z
" transform="scale(0.015625)"/>
      </defs>
      <use xlink:href="#DejaVuSans-43"/>
      <use xlink:href="#DejaVuSans-6f" x="69.824219"/>
      <use xlink:href="#DejaVuSans-6e" x="131.005859"/>
      <use xlink:href="#DejaVuSans-73" x="194.384766"/>
      <use xlink:href="#DejaVuSans-75" x="246.484375"/>
      <use xlink:href="#DejaVuSans-6d" x="309.863281"/>
      <use xlink:href="#DejaVuSans-65" x="407.275391"/>
      <use xlink:href="#DejaVuSans-72" x="468.798828"/>
      <use xlink:href="#DejaVuSans-20" x="509.912109"/>
      <use xlink:href="#DejaVuSans-70" x="541.699219"/>
      <use xlink:href="#DejaVuSans-72" x="605.175781"/>
      <use xlink:href="#DejaVuSans-69" x="646.289062"/>
      <use xlink:href="#DejaVuSans-63" x="674.072266"/>
      <use xlink:href="#DejaVuSans-65" x="729.052734"/>
      <use xlink:href="#DejaVuSans-20" x="790.576172"/>
      <use xlink:href="#DejaVuSans-64" x="822.363281"/>
      <use xlink:href="#DejaVuSans-69" x="885.839844"/>
      <use xlink:href="#DejaVuSans-66" x="913.623047"/>
      <use xlink:href="#DejaVuSans-66" x="948.828125"/>
      <use xlink:href="#DejaVuSans-65" x="984.033203"/>
      <use xlink:href="#DejaVuSans-72" x="1045.556641"/>
      <use xlink:href="#DejaVuSans-65" x="1084.419922"/>
      <use xlink:href="#DejaVuSans-6e" x="1145.943359"/>
      <use xlink:href="#DejaVuSans-63" x="1209.322266"/>
      <use xlink:href="#DejaVuSans-65" x="1264.302734"/>
      <use xlink:href="#DejaVuSans-20" x="1325.826172"/>
      <use xlink:href="#DejaVuSans-66" x="1357.613281"/>
      <use xlink:href="#DejaVuSans-72" x="1392.818359"/>
      <use xlink:href="#DejaVuSans-6f" x="1431.681641"/>
      <use xlink:href="#DejaVuSans-6d" x="1492.863281"/>
      <use xlink:href="#DejaVuSans-20" x="1590.275391"/>
      <use xlink:href="#DejaVuSans-70" x="1622.0625"/>
      <use xlink:href="#DejaVuSans-72" x="1685.539062"/>
      <use xlink:href="#DejaVuSans-65" x="1724.402344"/>
      <use xlink:href="#DejaVuSans-76" x="1785.925781"/>
      <use xlink:href="#DejaVuSans-69" x="1845.105469"/>
      <use xlink:href="#DejaVuSans-6f" x="1872.888672"/>
      <use xlink:href="#DejaVuSans-75" x="1934.070312"/>
      <use xlink:href="#DejaVuSans-73" x="1997.449219"/>
      <use xlink:href="#DejaVuSans-20" x="2049.548828"/>
      <use xlink:href="#DejaVuSans-79" x="2081.335938"/>
      <use xlink:href="#DejaVuSans-65" x="2140.515625"/>
      <use xlink:href="#DejaVuSans-61" x="2202.039062"/>
      <use xlink:href="#DejaVuSans-72" x="2263.318359"/>
      <use xlink:href="#DejaVuSans-20" x="2304.431641"/>
      <use xlink:href="#DejaVuSans-28" x="2336.21875"/>
      <use xlink:href="#DejaVuSans-25" x="2375.232422"/>
      <use xlink:href="#DejaVuSans-29" x="2470.251953"/>
     </g>
    </g>
   </g>
   <g id="line2d_47">
    <path d="M 73.680895 186.656424 
L 89.263467 177.358475 
L 104.846038 211.063541 
L 120.42861 230.821683 
L 136.011181 199.441104 
L 151.593753 209.901297 
L 167.176325 202.927835 
L 182.758896 199.441104 
L 198.341468 158.762576 
L 213.92404 220.36149 
L 229.506611 214.550272 
L 245.089183 209.901297 
L 260.671755 193.629886 
L 276.254326 215.712516 
L 291.836898 227.334952 
L 307.419469 228.497196 
L 323.002041 223.848221 
L 338.584613 202.927835 
L 354.167184 207.57681 
L 369.749756 199.441104 
L 385.332328 194.79213 
L 400.914899 187.818668 
L 416.497471 56.485133 
L 432.080043 107.623855 
" clip-path="url(#p271414b07c)" style="fill: none; stroke: #00bdb1; stroke-width: 1.5; stroke-linecap: square"/>
    <defs>
     <path id="m7d2c75da78" d="M 0 3 
C 0.795609 3 1.55874 2.683901 2.12132 2.12132 
C 2.683901 1.55874 3 0.795609 3 0 
C 3 -0.795609 2.683901 -1.55874 2.12132 -2.12132 
C 1.55874 -2.683901 0.795609 -3 0 -3 
C -0.795609 -3 -1.55874 -2.683901 -2.12132 -2.12132 
C -2.683901 -1.55874 -3 -0.795609 -3 0 
C -3 0.795609 -2.683901 1.55874 -2.12132 2.12132 
C -1.55874 2.683901 -0.795609 3 0 3 
z
" style="stroke: #026660"/>
    </defs>
    <g clip-path="url(#p271414b07c)">
     <use xlink:href="#m7d2c75da78" x="73.680895" y="186.656424" style="fill: #039188; stroke: #026660"/>
     <use xlink:href="#m7d2c75da78" x="89.263467" y="177.358475" style="fill: #039188; stroke: #026660"/>
     <use xlink:href="#m7d2c75da78" x="104.846038" y="211.063541" style="fill: #039188; stroke: #026660"/>
     <use xlink:href="#m7d2c75da78" x="120.42861" y="230.821683" style="fill: #039188; stroke: #026660"/>
     <use xlink:href="#m7d2c75da78" x="136.011181" y="199.441104" style="fill: #039188; stroke: #026660"/>
     <use xlink:href="#m7d2c75da78" x="151.593753" y="209.901297" style="fill: #039188; stroke: #026660"/>
     <use xlink:href="#m7d2c75da78" x="167.176325" y="202.927835" style="fill: #039188; stroke: #026660"/>
     <use xlink:href="#m7d2c75da78" x="182.758896" y="199.441104" style="fill: #039188; stroke: #026660"/>
     <use xlink:href="#m7d2c75da78" x="198.341468" y="158.762576" style="fill: #039188; stroke: #026660"/>
     <use xlink:href="#m7d2c75da78" x="213.92404" y="220.36149" style="fill: #039188; stroke: #026660"/>
     <use xlink:href="#m7d2c75da78" x="229.506611" y="214.550272" style="fill: #039188; stroke: #026660"/>
     <use xlink:href="#m7d2c75da78" x="245.089183" y="209.901297" style="fill: #039188; stroke: #026660"/>
     <use xlink:href="#m7d2c75da78" x="260.671755" y="193.629886" style="fill: #039188; stroke: #026660"/>
     <use xlink:href="#m7d2c75da78" x="276.254326" y="215.712516" style="fill: #039188; stroke: #026660"/>
     <use xlink:href="#m7d2c75da78" x="291.836898" y="227.334952" style="fill: #039188; stroke: #026660"/>
     <use xlink:href="#m7d2c75da78" x="307.419469" y="228.497196" style="fill: #039188; stroke: #026660"/>
     <use xlink:href="#m7d2c75da78" x="323.002041" y="223.848221" style="fill: #039188; stroke: #026660"/>
     <use xlink:href="#m7d2c75da78" x="338.584613" y="202.927835" style="fill: #039188; stroke: #026660"/>
     <use xlink:href="#m7d2c75da78" x="354.167184" y="207.57681" style="fill: #039188; stroke: #026660"/>
     <use xlink:href="#m7d2c75da78" x="369.749756" y="199.441104" style="fill: #039188; stroke: #026660"/>
     <use xlink:href="#m7d2c75da78" x="385.332328" y="194.79213" style="fill: #039188; stroke: #026660"/>
     <use xlink:href="#m7d2c75da78" x="400.914899" y="187.818668" style="fill: #039188; stroke: #026660"/>
     <use xlink:href="#m7d2c75da78" x="416.497471" y="56.485133" style="fill: #039188; stroke: #026660"/>
     <use xlink:href="#m7d2c75da78" x="432.080043" y="107.623855" style="fill: #039188; stroke: #026660"/>
    </g>
   </g>
   <g id="line2d_48">
    <path d="M 73.680895 220.36149 
L 89.263467 172.7095 
L 104.846038 254.066557 
L 120.42861 257.553288 
L 136.011181 192.467642 
L 151.593753 235.470658 
L 167.176325 222.685978 
L 182.758896 177.358475 
L 198.341468 137.84219 
L 213.92404 277.31143 
L 229.506611 214.550272 
L 245.089183 178.520718 
L 260.671755 151.789114 
L 276.254326 175.033987 
L 291.836898 208.739054 
L 307.419469 244.768607 
L 323.002041 242.44412 
L 338.584613 171.547256 
L 354.167184 216.874759 
L 369.749756 199.441104 
L 385.332328 179.682962 
L 400.914899 222.685978 
L 416.497471 37.889235 
L 432.080043 98.325905 
" clip-path="url(#p271414b07c)" style="fill: none; stroke: #ee5383; stroke-width: 1.5; stroke-linecap: square"/>
    <defs>
     <path id="me0ba74e29c" d="M 0 3 
C 0.795609 3 1.55874 2.683901 2.12132 2.12132 
C 2.683901 1.55874 3 0.795609 3 0 
C 3 -0.795609 2.683901 -1.55874 2.12132 -2.12132 
C 1.55874 -2.683901 0.795609 -3 0 -3 
C -0.795609 -3 -1.55874 -2.683901 -2.12132 -2.12132 
C -2.683901 -1.55874 -3 -0.795609 -3 0 
C -3 0.795609 -2.683901 1.55874 -2.12132 2.12132 
C -1.55874 2.683901 -0.795609 3 0 3 
z
" style="stroke: #91334f"/>
    </defs>
    <g clip-path="url(#p271414b07c)">
     <use xlink:href="#me0ba74e29c" x="73.680895" y="220.36149" style="fill: #d14972; stroke: #91334f"/>
     <use xlink:href="#me0ba74e29c" x="89.263467" y="172.7095" style="fill: #d14972; stroke: #91334f"/>
     <use xlink:href="#me0ba74e29c" x="104.846038" y="254.066557" style="fill: #d14972; stroke: #91334f"/>
     <use xlink:href="#me0ba74e29c" x="120.42861" y="257.553288" style="fill: #d14972; stroke: #91334f"/>
     <use xlink:href="#me0ba74e29c" x="136.011181" y="192.467642" style="fill: #d14972; stroke: #91334f"/>
     <use xlink:href="#me0ba74e29c" x="151.593753" y="235.470658" style="fill: #d14972; stroke: #91334f"/>
     <use xlink:href="#me0ba74e29c" x="167.176325" y="222.685978" style="fill: #d14972; stroke: #91334f"/>
     <use xlink:href="#me0ba74e29c" x="182.758896" y="177.358475" style="fill: #d14972; stroke: #91334f"/>
     <use xlink:href="#me0ba74e29c" x="198.341468" y="137.84219" style="fill: #d14972; stroke: #91334f"/>
     <use xlink:href="#me0ba74e29c" x="213.92404" y="277.31143" style="fill: #d14972; stroke: #91334f"/>
     <use xlink:href="#me0ba74e29c" x="229.506611" y="214.550272" style="fill: #d14972; stroke: #91334f"/>
     <use xlink:href="#me0ba74e29c" x="245.089183" y="178.520718" style="fill: #d14972; stroke: #91334f"/>
     <use xlink:href="#me0ba74e29c" x="260.671755" y="151.789114" style="fill: #d14972; stroke: #91334f"/>
     <use xlink:href="#me0ba74e29c" x="276.254326" y="175.033987" style="fill: #d14972; stroke: #91334f"/>
     <use xlink:href="#me0ba74e29c" x="291.836898" y="208.739054" style="fill: #d14972; stroke: #91334f"/>
     <use xlink:href="#me0ba74e29c" x="307.419469" y="244.768607" style="fill: #d14972; stroke: #91334f"/>
     <use xlink:href="#me0ba74e29c" x="323.002041" y="242.44412" style="fill: #d14972; stroke: #91334f"/>
     <use xlink:href="#me0ba74e29c" x="338.584613" y="171.547256" style="fill: #d14972; stroke: #91334f"/>
     <use xlink:href="#me0ba74e29c" x="354.167184" y="216.874759" style="fill: #d14972; stroke: #91334f"/>
     <use xlink:href="#me0ba74e29c" x="369.749756" y="199.441104" style="fill: #d14972; stroke: #91334f"/>
     <use xlink:href="#me0ba74e29c" x="385.332328" y="179.682962" style="fill: #d14972; stroke: #91334f"/>
     <use xlink:href="#me0ba74e29c" x="400.914899" y="222.685978" style="fill: #d14972; stroke: #91334f"/>
     <use xlink:href="#me0ba74e29c" x="416.497471" y="37.889235" style="fill: #d14972; stroke: #91334f"/>
     <use xlink:href="#me0ba74e29c" x="432.080043" y="98.325905" style="fill: #d14972; stroke: #91334f"/>
    </g>
   </g>
   <g id="line2d_49">
    <path d="M 73.680895 183.169693 
L 89.263467 194.79213 
L 104.846038 209.901297 
L 120.42861 221.523734 
L 136.011181 198.278861 
L 151.593753 215.712516 
L 167.176325 218.037003 
L 182.758896 113.435073 
L 198.341468 116.921804 
L 213.92404 156.438089 
L 229.506611 178.520718 
L 245.089183 195.954373 
L 260.671755 201.765592 
L 276.254326 190.143155 
L 291.836898 199.441104 
L 307.419469 177.358475 
L 323.002041 180.845206 
L 338.584613 211.063541 
L 354.167184 197.116617 
L 369.749756 206.414566 
L 385.332328 143.653408 
L 400.914899 134.355459 
L 416.497471 159.92482 
L 432.080043 155.275845 
" clip-path="url(#p271414b07c)" style="fill: none; stroke: #d69653; stroke-width: 1.5; stroke-linecap: square"/>
    <defs>
     <path id="m3cdfb00fd6" d="M 0 3 
C 0.795609 3 1.55874 2.683901 2.12132 2.12132 
C 2.683901 1.55874 3 0.795609 3 0 
C 3 -0.795609 2.683901 -1.55874 2.12132 -2.12132 
C 1.55874 -2.683901 0.795609 -3 0 -3 
C -0.795609 -3 -1.55874 -2.683901 -2.12132 -2.12132 
C -2.683901 -1.55874 -3 -0.795609 -3 0 
C -3 0.795609 -2.683901 1.55874 -2.12132 2.12132 
C -1.55874 2.683901 -0.795609 3 0 3 
z
" style="stroke: #986d3c"/>
    </defs>
    <g clip-path="url(#p271414b07c)">
     <use xlink:href="#m3cdfb00fd6" x="73.680895" y="183.169693" style="fill: #bd874a; stroke: #986d3c"/>
     <use xlink:href="#m3cdfb00fd6" x="89.263467" y="194.79213" style="fill: #bd874a; stroke: #986d3c"/>
     <use xlink:href="#m3cdfb00fd6" x="104.846038" y="209.901297" style="fill: #bd874a; stroke: #986d3c"/>
     <use xlink:href="#m3cdfb00fd6" x="120.42861" y="221.523734" style="fill: #bd874a; stroke: #986d3c"/>
     <use xlink:href="#m3cdfb00fd6" x="136.011181" y="198.278861" style="fill: #bd874a; stroke: #986d3c"/>
     <use xlink:href="#m3cdfb00fd6" x="151.593753" y="215.712516" style="fill: #bd874a; stroke: #986d3c"/>
     <use xlink:href="#m3cdfb00fd6" x="167.176325" y="218.037003" style="fill: #bd874a; stroke: #986d3c"/>
     <use xlink:href="#m3cdfb00fd6" x="182.758896" y="113.435073" style="fill: #bd874a; stroke: #986d3c"/>
     <use xlink:href="#m3cdfb00fd6" x="198.341468" y="116.921804" style="fill: #bd874a; stroke: #986d3c"/>
     <use xlink:href="#m3cdfb00fd6" x="213.92404" y="156.438089" style="fill: #bd874a; stroke: #986d3c"/>
     <use xlink:href="#m3cdfb00fd6" x="229.506611" y="178.520718" style="fill: #bd874a; stroke: #986d3c"/>
     <use xlink:href="#m3cdfb00fd6" x="245.089183" y="195.954373" style="fill: #bd874a; stroke: #986d3c"/>
     <use xlink:href="#m3cdfb00fd6" x="260.671755" y="201.765592" style="fill: #bd874a; stroke: #986d3c"/>
     <use xlink:href="#m3cdfb00fd6" x="276.254326" y="190.143155" style="fill: #bd874a; stroke: #986d3c"/>
     <use xlink:href="#m3cdfb00fd6" x="291.836898" y="199.441104" style="fill: #bd874a; stroke: #986d3c"/>
     <use xlink:href="#m3cdfb00fd6" x="307.419469" y="177.358475" style="fill: #bd874a; stroke: #986d3c"/>
     <use xlink:href="#m3cdfb00fd6" x="323.002041" y="180.845206" style="fill: #bd874a; stroke: #986d3c"/>
     <use xlink:href="#m3cdfb00fd6" x="338.584613" y="211.063541" style="fill: #bd874a; stroke: #986d3c"/>
     <use xlink:href="#m3cdfb00fd6" x="354.167184" y="197.116617" style="fill: #bd874a; stroke: #986d3c"/>
     <use xlink:href="#m3cdfb00fd6" x="369.749756" y="206.414566" style="fill: #bd874a; stroke: #986d3c"/>
     <use xlink:href="#m3cdfb00fd6" x="385.332328" y="143.653408" style="fill: #bd874a; stroke: #986d3c"/>
     <use xlink:href="#m3cdfb00fd6" x="400.914899" y="134.355459" style="fill: #bd874a; stroke: #986d3c"/>
     <use xlink:href="#m3cdfb00fd6" x="416.497471" y="159.92482" style="fill: #bd874a; stroke: #986d3c"/>
     <use xlink:href="#m3cdfb00fd6" x="432.080043" y="155.275845" style="fill: #bd874a; stroke: #986d3c"/>
    </g>
   </g>
   <g id="patch_3">
    <path d="M 55.760938 289.28254 
L 55.760938 25.918125 
" style="fill: none; stroke: #000000; stroke-width: 0.8; stroke-linejoin: miter; stroke-linecap: square"/>
   </g>
   <g id="patch_4">
    <path d="M 450 289.28254 
L 450 25.918125 
" style="fill: none; stroke: #000000; stroke-width: 0.8; stroke-linejoin: miter; stroke-linecap: square"/>
   </g>
   <g id="patch_5">
    <path d="M 55.760937 289.28254 
L 450 289.28254 
" style="fill: none; stroke: #000000; stroke-width: 0.8; stroke-linejoin: miter; stroke-linecap: square"/>
   </g>
   <g id="patch_6">
    <path d="M 55.760937 25.918125 
L 450 25.918125 
" style="fill: none; stroke: #000000; stroke-width: 0.8; stroke-linejoin: miter; stroke-linecap: square"/>
   </g>
   <g id="text_38">
    <!-- Consumer price index development in Czech republic -->
    <g transform="translate(92.234219 19.918125) scale(0.12 -0.12)">
     <defs>
      <path id="DejaVuSans-78" d="M 3513 3500 
L 2247 1797 
L 3578 0 
L 2900 0 
L 1881 1375 
L 863 0 
L 184 0 
L 1544 1831 
L 300 3500 
L 978 3500 
L 1906 2253 
L 2834 3500 
L 3513 3500 
z
" transform="scale(0.015625)"/>
      <path id="DejaVuSans-6c" d="M 603 4863 
L 1178 4863 
L 1178 0 
L 603 0 
L 603 4863 
z
" transform="scale(0.015625)"/>
      <path id="DejaVuSans-74" d="M 1172 4494 
L 1172 3500 
L 2356 3500 
L 2356 3053 
L 1172 3053 
L 1172 1153 
Q 1172 725 1289 603 
Q 1406 481 1766 481 
L 2356 481 
L 2356 0 
L 1766 0 
Q 1100 0 847 248 
Q 594 497 594 1153 
L 594 3053 
L 172 3053 
L 172 3500 
L 594 3500 
L 594 4494 
L 1172 4494 
z
" transform="scale(0.015625)"/>
      <path id="DejaVuSans-7a" d="M 353 3500 
L 3084 3500 
L 3084 2975 
L 922 459 
L 3084 459 
L 3084 0 
L 275 0 
L 275 525 
L 2438 3041 
L 353 3041 
L 353 3500 
z
" transform="scale(0.015625)"/>
      <path id="DejaVuSans-68" d="M 3513 2113 
L 3513 0 
L 2938 0 
L 2938 2094 
Q 2938 2591 2744 2837 
Q 2550 3084 2163 3084 
Q 1697 3084 1428 2787 
Q 1159 2491 1159 1978 
L 1159 0 
L 581 0 
L 581 4863 
L 1159 4863 
L 1159 2956 
Q 1366 3272 1645 3428 
Q 1925 3584 2291 3584 
Q 2894 3584 3203 3211 
Q 3513 2838 3513 2113 
z
" transform="scale(0.015625)"/>
      <path id="DejaVuSans-62" d="M 3116 1747 
Q 3116 2381 2855 2742 
Q 2594 3103 2138 3103 
Q 1681 3103 1420 2742 
Q 1159 2381 1159 1747 
Q 1159 1113 1420 752 
Q 1681 391 2138 391 
Q 2594 391 2855 752 
Q 3116 1113 3116 1747 
z
M 1159 2969 
Q 1341 3281 1617 3432 
Q 1894 3584 2278 3584 
Q 2916 3584 3314 3078 
Q 3713 2572 3713 1747 
Q 3713 922 3314 415 
Q 2916 -91 2278 -91 
Q 1894 -91 1617 61 
Q 1341 213 1159 525 
L 1159 0 
L 581 0 
L 581 4863 
L 1159 4863 
L 1159 2969 
z
" transform="scale(0.015625)"/>
     </defs>
     <use xlink:href="#DejaVuSans-43"/>
     <use xlink:href="#DejaVuSans-6f" x="69.824219"/>
     <use xlink:href="#DejaVuSans-6e" x="131.005859"/>
     <use xlink:href="#DejaVuSans-73" x="194.384766"/>
     <use xlink:href="#DejaVuSans-75" x="246.484375"/>
     <use xlink:href="#DejaVuSans-6d" x="309.863281"/>
     <use xlink:href="#DejaVuSans-65" x="407.275391"/>
     <use xlink:href="#DejaVuSans-72" x="468.798828"/>
     <use xlink:href="#DejaVuSans-20" x="509.912109"/>
     <use xlink:href="#DejaVuSans-70" x="541.699219"/>
     <use xlink:href="#DejaVuSans-72" x="605.175781"/>
     <use xlink:href="#DejaVuSans-69" x="646.289062"/>
     <use xlink:href="#DejaVuSans-63" x="674.072266"/>
     <use xlink:href="#DejaVuSans-65" x="729.052734"/>
     <use xlink:href="#DejaVuSans-20" x="790.576172"/>
     <use xlink:href="#DejaVuSans-69" x="822.363281"/>
     <use xlink:href="#DejaVuSans-6e" x="850.146484"/>
     <use xlink:href="#DejaVuSans-64" x="913.525391"/>
     <use xlink:href="#DejaVuSans-65" x="977.001953"/>
     <use xlink:href="#DejaVuSans-78" x="1036.775391"/>
     <use xlink:href="#DejaVuSans-20" x="1095.955078"/>
     <use xlink:href="#DejaVuSans-64" x="1127.742188"/>
     <use xlink:href="#DejaVuSans-65" x="1191.21875"/>
     <use xlink:href="#DejaVuSans-76" x="1252.742188"/>
     <use xlink:href="#DejaVuSans-65" x="1311.921875"/>
     <use xlink:href="#DejaVuSans-6c" x="1373.445312"/>
     <use xlink:href="#DejaVuSans-6f" x="1401.228516"/>
     <use xlink:href="#DejaVuSans-70" x="1462.410156"/>
     <use xlink:href="#DejaVuSans-6d" x="1525.886719"/>
     <use xlink:href="#DejaVuSans-65" x="1623.298828"/>
     <use xlink:href="#DejaVuSans-6e" x="1684.822266"/>
     <use xlink:href="#DejaVuSans-74" x="1748.201172"/>
     <use xlink:href="#DejaVuSans-20" x="1787.410156"/>
     <use xlink:href="#DejaVuSans-69" x="1819.197266"/>
     <use xlink:href="#DejaVuSans-6e" x="1846.980469"/>
     <use xlink:href="#DejaVuSans-20" x="1910.359375"/>
     <use xlink:href="#DejaVuSans-43" x="1942.146484"/>
     <use xlink:href="#DejaVuSans-7a" x="2011.970703"/>
     <use xlink:href="#DejaVuSans-65" x="2064.460938"/>
     <use xlink:href="#DejaVuSans-63" x="2125.984375"/>
     <use xlink:href="#DejaVuSans-68" x="2180.964844"/>
     <use xlink:href="#DejaVuSans-20" x="2244.34375"/>
     <use xlink:href="#DejaVuSans-72" x="2276.130859"/>
     <use xlink:href="#DejaVuSans-65" x="2314.994141"/>
     <use xlink:href="#DejaVuSans-70" x="2376.517578"/>
     <use xlink:href="#DejaVuSans-75" x="2439.994141"/>
     <use xlink:href="#DejaVuSans-62" x="2503.373047"/>
     <use xlink:href="#DejaVuSans-6c" x="2566.849609"/>
     <use xlink:href="#DejaVuSans-69" x="2594.632812"/>
     <use xlink:href="#DejaVuSans-63" x="2622.416016"/>
    </g>
   </g>
   <g id="legend_1">
    <g id="patch_7">
     <path d="M 62.760938 77.9525 
L 311.742188 77.9525 
Q 313.742188 77.9525 313.742188 75.9525 
L 313.742188 32.918125 
Q 313.742188 30.918125 311.742188 30.918125 
L 62.760938 30.918125 
Q 60.760938 30.918125 60.760938 32.918125 
L 60.760938 75.9525 
Q 60.760938 77.9525 62.760938 77.9525 
z
" style="fill: #ffffff; opacity: 0.8; stroke: #cccccc; stroke-linejoin: miter"/>
    </g>
    <g id="line2d_50">
     <path d="M 64.760938 39.016562 
L 74.760938 39.016562 
L 84.760938 39.016562 
" style="fill: none; stroke: #00bdb1; stroke-width: 1.5; stroke-linecap: square"/>
     <g>
      <use xlink:href="#m7d2c75da78" x="74.760938" y="39.016562" style="fill: #039188; stroke: #026660"/>
     </g>
    </g>
    <g id="text_39">
     <!-- total -->
     <g transform="translate(92.760938 42.516562) scale(0.1 -0.1)">
      <use xlink:href="#DejaVuSans-74"/>
      <use xlink:href="#DejaVuSans-6f" x="39.208984"/>
      <use xlink:href="#DejaVuSans-74" x="100.390625"/>
      <use xlink:href="#DejaVuSans-61" x="139.599609"/>
      <use xlink:href="#DejaVuSans-6c" x="200.878906"/>
     </g>
    </g>
    <g id="line2d_51">
     <path d="M 64.760938 53.694687 
L 74.760938 53.694687 
L 84.760938 53.694687 
" style="fill: none; stroke: #ee5383; stroke-width: 1.5; stroke-linecap: square"/>
     <g>
      <use xlink:href="#me0ba74e29c" x="74.760938" y="53.694687" style="fill: #d14972; stroke: #91334f"/>
     </g>
    </g>
    <g id="text_40">
     <!-- Food and non-alcoholic beverages -->
     <g transform="translate(92.760938 57.194687) scale(0.1 -0.1)">
      <defs>
       <path id="DejaVuSans-46" d="M 628 4666 
L 3309 4666 
L 3309 4134 
L 1259 4134 
L 1259 2759 
L 3109 2759 
L 3109 2228 
L 1259 2228 
L 1259 0 
L 628 0 
L 628 4666 
z
" transform="scale(0.015625)"/>
       <path id="DejaVuSans-2d" d="M 313 2009 
L 1997 2009 
L 1997 1497 
L 313 1497 
L 313 2009 
z
" transform="scale(0.015625)"/>
       <path id="DejaVuSans-67" d="M 2906 1791 
Q 2906 2416 2648 2759 
Q 2391 3103 1925 3103 
Q 1463 3103 1205 2759 
Q 947 2416 947 1791 
Q 947 1169 1205 825 
Q 1463 481 1925 481 
Q 2391 481 2648 825 
Q 2906 1169 2906 1791 
z
M 3481 434 
Q 3481 -459 3084 -895 
Q 2688 -1331 1869 -1331 
Q 1566 -1331 1297 -1286 
Q 1028 -1241 775 -1147 
L 775 -588 
Q 1028 -725 1275 -790 
Q 1522 -856 1778 -856 
Q 2344 -856 2625 -561 
Q 2906 -266 2906 331 
L 2906 616 
Q 2728 306 2450 153 
Q 2172 0 1784 0 
Q 1141 0 747 490 
Q 353 981 353 1791 
Q 353 2603 747 3093 
Q 1141 3584 1784 3584 
Q 2172 3584 2450 3431 
Q 2728 3278 2906 2969 
L 2906 3500 
L 3481 3500 
L 3481 434 
z
" transform="scale(0.015625)"/>
      </defs>
      <use xlink:href="#DejaVuSans-46"/>
      <use xlink:href="#DejaVuSans-6f" x="53.894531"/>
      <use xlink:href="#DejaVuSans-6f" x="115.076172"/>
      <use xlink:href="#DejaVuSans-64" x="176.257812"/>
      <use xlink:href="#DejaVuSans-20" x="239.734375"/>
      <use xlink:href="#DejaVuSans-61" x="271.521484"/>
      <use xlink:href="#DejaVuSans-6e" x="332.800781"/>
      <use xlink:href="#DejaVuSans-64" x="396.179688"/>
      <use xlink:href="#DejaVuSans-20" x="459.65625"/>
      <use xlink:href="#DejaVuSans-6e" x="491.443359"/>
      <use xlink:href="#DejaVuSans-6f" x="554.822266"/>
      <use xlink:href="#DejaVuSans-6e" x="616.003906"/>
      <use xlink:href="#DejaVuSans-2d" x="679.382812"/>
      <use xlink:href="#DejaVuSans-61" x="715.466797"/>
      <use xlink:href="#DejaVuSans-6c" x="776.746094"/>
      <use xlink:href="#DejaVuSans-63" x="804.529297"/>
      <use xlink:href="#DejaVuSans-6f" x="859.509766"/>
      <use xlink:href="#DejaVuSans-68" x="920.691406"/>
      <use xlink:href="#DejaVuSans-6f" x="984.070312"/>
      <use xlink:href="#DejaVuSans-6c" x="1045.251953"/>
      <use xlink:href="#DejaVuSans-69" x="1073.035156"/>
      <use xlink:href="#DejaVuSans-63" x="1100.818359"/>
      <use xlink:href="#DejaVuSans-20" x="1155.798828"/>
      <use xlink:href="#DejaVuSans-62" x="1187.585938"/>
      <use xlink:href="#DejaVuSans-65" x="1251.0625"/>
      <use xlink:href="#DejaVuSans-76" x="1312.585938"/>
      <use xlink:href="#DejaVuSans-65" x="1371.765625"/>
      <use xlink:href="#DejaVuSans-72" x="1433.289062"/>
      <use xlink:href="#DejaVuSans-61" x="1474.402344"/>
      <use xlink:href="#DejaVuSans-67" x="1535.681641"/>
      <use xlink:href="#DejaVuSans-65" x="1599.158203"/>
      <use xlink:href="#DejaVuSans-73" x="1660.681641"/>
     </g>
    </g>
    <g id="line2d_52">
     <path d="M 64.760938 68.372812 
L 74.760938 68.372812 
L 84.760938 68.372812 
" style="fill: none; stroke: #d69653; stroke-width: 1.5; stroke-linecap: square"/>
     <g>
      <use xlink:href="#m3cdfb00fd6" x="74.760938" y="68.372812" style="fill: #bd874a; stroke: #986d3c"/>
     </g>
    </g>
    <g id="text_41">
     <!-- Alcoholic beverages, tobacco and narcotics -->
     <g transform="translate(92.760938 71.872812) scale(0.1 -0.1)">
      <defs>
       <path id="DejaVuSans-41" d="M 2188 4044 
L 1331 1722 
L 3047 1722 
L 2188 4044 
z
M 1831 4666 
L 2547 4666 
L 4325 0 
L 3669 0 
L 3244 1197 
L 1141 1197 
L 716 0 
L 50 0 
L 1831 4666 
z
" transform="scale(0.015625)"/>
       <path id="DejaVuSans-2c" d="M 750 794 
L 1409 794 
L 1409 256 
L 897 -744 
L 494 -744 
L 750 256 
L 750 794 
z
" transform="scale(0.015625)"/>
      </defs>
      <use xlink:href="#DejaVuSans-41"/>
      <use xlink:href="#DejaVuSans-6c" x="68.408203"/>
      <use xlink:href="#DejaVuSans-63" x="96.191406"/>
      <use xlink:href="#DejaVuSans-6f" x="151.171875"/>
      <use xlink:href="#DejaVuSans-68" x="212.353516"/>
      <use xlink:href="#DejaVuSans-6f" x="275.732422"/>
      <use xlink:href="#DejaVuSans-6c" x="336.914062"/>
      <use xlink:href="#DejaVuSans-69" x="364.697266"/>
      <use xlink:href="#DejaVuSans-63" x="392.480469"/>
      <use xlink:href="#DejaVuSans-20" x="447.460938"/>
      <use xlink:href="#DejaVuSans-62" x="479.248047"/>
      <use xlink:href="#DejaVuSans-65" x="542.724609"/>
      <use xlink:href="#DejaVuSans-76" x="604.248047"/>
      <use xlink:href="#DejaVuSans-65" x="663.427734"/>
      <use xlink:href="#DejaVuSans-72" x="724.951172"/>
      <use xlink:href="#DejaVuSans-61" x="766.064453"/>
      <use xlink:href="#DejaVuSans-67" x="827.34375"/>
      <use xlink:href="#DejaVuSans-65" x="890.820312"/>
      <use xlink:href="#DejaVuSans-73" x="952.34375"/>
      <use xlink:href="#DejaVuSans-2c" x="1004.443359"/>
      <use xlink:href="#DejaVuSans-20" x="1036.230469"/>
      <use xlink:href="#DejaVuSans-74" x="1068.017578"/>
      <use xlink:href="#DejaVuSans-6f" x="1107.226562"/>
      <use xlink:href="#DejaVuSans-62" x="1168.408203"/>
      <use xlink:href="#DejaVuSans-61" x="1231.884766"/>
      <use xlink:href="#DejaVuSans-63" x="1293.164062"/>
      <use xlink:href="#DejaVuSans-63" x="1348.144531"/>
      <use xlink:href="#DejaVuSans-6f" x="1403.125"/>
      <use xlink:href="#DejaVuSans-20" x="1464.306641"/>
      <use xlink:href="#DejaVuSans-61" x="1496.09375"/>
      <use xlink:href="#DejaVuSans-6e" x="1557.373047"/>
      <use xlink:href="#DejaVuSans-64" x="1620.751953"/>
      <use xlink:href="#DejaVuSans-20" x="1684.228516"/>
      <use xlink:href="#DejaVuSans-6e" x="1716.015625"/>
      <use xlink:href="#DejaVuSans-61" x="1779.394531"/>
      <use xlink:href="#DejaVuSans-72" x="1840.673828"/>
      <use xlink:href="#DejaVuSans-63" x="1879.537109"/>
      <use xlink:href="#DejaVuSans-6f" x="1934.517578"/>
      <use xlink:href="#DejaVuSans-74" x="1995.699219"/>
      <use xlink:href="#DejaVuSans-69" x="2034.908203"/>
      <use xlink:href="#DejaVuSans-63" x="2062.691406"/>
      <use xlink:href="#DejaVuSans-73" x="2117.671875"/>
     </g>
    </g>
   </g>
  </g>
 </g>
 <defs>
  <clipPath id="p271414b07c">
   <rect x="55.760938" y="25.918125" width="394.239062" height="263.364415"/>
  </clipPath>
 </defs>
</svg>
