<?xml version="1.0" encoding="utf-8" standalone="no"?>
<!DOCTYPE svg PUBLIC "-//W3C//DTD SVG 1.1//EN"
  "http://www.w3.org/Graphics/SVG/1.1/DTD/svg11.dtd">
<svg xmlns:xlink="http://www.w3.org/1999/xlink" width="460.8pt" height="345.6pt" viewBox="0 0 460.8 345.6" xmlns="http://www.w3.org/2000/svg" version="1.1">
 <metadata>
  <rdf:RDF xmlns:dc="http://purl.org/dc/elements/1.1/" xmlns:cc="http://creativecommons.org/ns#" xmlns:rdf="http://www.w3.org/1999/02/22-rdf-syntax-ns#">
   <cc:Work>
    <dc:type rdf:resource="http://purl.org/dc/dcmitype/StillImage"/>
    <dc:date>2024-05-21T11:13:57.825713</dc:date>
    <dc:format>image/svg+xml</dc:format>
    <dc:creator>
     <cc:Agent>
      <dc:title>Matplotlib v3.6.3, https://matplotlib.org/</dc:title>
     </cc:Agent>
    </dc:creator>
   </cc:Work>
  </rdf:RDF>
 </metadata>
 <defs>
  <style type="text/css">*{stroke-linejoin: round; stroke-linecap: butt}</style>
 </defs>
 <g id="figure_1">
  <g id="patch_1">
   <path d="M 0 345.6 
L 460.8 345.6 
L 460.8 0 
L 0 0 
z
" style="fill: #ffffff"/>
  </g>
  <g id="axes_1">
   <g id="patch_2">
    <path d="M 46.220313 289.28254 
L 450 289.28254 
L 450 25.918125 
L 46.220313 25.918125 
z
" style="fill: #ffffff"/>
   </g>
   <g id="matplotlib.axis_1">
    <g id="xtick_1">
     <g id="line2d_1">
      <defs>
       <path id="m4d5bbecb8d" d="M 0 0 
L 0 3.5 
" style="stroke: #000000; stroke-width: 0.8"/>
      </defs>
      <g>
       <use xlink:href="#m4d5bbecb8d" x="64.573935" y="289.28254" style="stroke: #000000; stroke-width: 0.8"/>
      </g>
     </g>
     <g id="text_1">
      <!-- 2000 -->
      <g transform="translate(57.527174 319.651314) rotate(-45) scale(0.1 -0.1)">
       <defs>
        <path id="DejaVuSans-32" d="M 1228 531 
L 3431 531 
L 3431 0 
L 469 0 
L 469 531 
Q 828 903 1448 1529 
Q 2069 2156 2228 2338 
Q 2531 2678 2651 2914 
Q 2772 3150 2772 3378 
Q 2772 3750 2511 3984 
Q 2250 4219 1831 4219 
Q 1534 4219 1204 4116 
Q 875 4013 500 3803 
L 500 4441 
Q 881 4594 1212 4672 
Q 1544 4750 1819 4750 
Q 2544 4750 2975 4387 
Q 3406 4025 3406 3419 
Q 3406 3131 3298 2873 
Q 3191 2616 2906 2266 
Q 2828 2175 2409 1742 
Q 1991 1309 1228 531 
z
" transform="scale(0.015625)"/>
        <path id="DejaVuSans-30" d="M 2034 4250 
Q 1547 4250 1301 3770 
Q 1056 3291 1056 2328 
Q 1056 1369 1301 889 
Q 1547 409 2034 409 
Q 2525 409 2770 889 
Q 3016 1369 3016 2328 
Q 3016 3291 2770 3770 
Q 2525 4250 2034 4250 
z
M 2034 4750 
Q 2819 4750 3233 4129 
Q 3647 3509 3647 2328 
Q 3647 1150 3233 529 
Q 2819 -91 2034 -91 
Q 1250 -91 836 529 
Q 422 1150 422 2328 
Q 422 3509 836 4129 
Q 1250 4750 2034 4750 
z
" transform="scale(0.015625)"/>
       </defs>
       <use xlink:href="#DejaVuSans-32"/>
       <use xlink:href="#DejaVuSans-30" x="63.623047"/>
       <use xlink:href="#DejaVuSans-30" x="127.246094"/>
       <use xlink:href="#DejaVuSans-30" x="190.869141"/>
      </g>
     </g>
    </g>
    <g id="xtick_2">
     <g id="line2d_2">
      <g>
       <use xlink:href="#m4d5bbecb8d" x="80.533606" y="289.28254" style="stroke: #000000; stroke-width: 0.8"/>
      </g>
     </g>
     <g id="text_2">
      <!-- 2001 -->
      <g transform="translate(73.486845 319.651314) rotate(-45) scale(0.1 -0.1)">
       <defs>
        <path id="DejaVuSans-31" d="M 794 531 
L 1825 531 
L 1825 4091 
L 703 3866 
L 703 4441 
L 1819 4666 
L 2450 4666 
L 2450 531 
L 3481 531 
L 3481 0 
L 794 0 
L 794 531 
z
" transform="scale(0.015625)"/>
       </defs>
       <use xlink:href="#DejaVuSans-32"/>
       <use xlink:href="#DejaVuSans-30" x="63.623047"/>
       <use xlink:href="#DejaVuSans-30" x="127.246094"/>
       <use xlink:href="#DejaVuSans-31" x="190.869141"/>
      </g>
     </g>
    </g>
    <g id="xtick_3">
     <g id="line2d_3">
      <g>
       <use xlink:href="#m4d5bbecb8d" x="96.493278" y="289.28254" style="stroke: #000000; stroke-width: 0.8"/>
      </g>
     </g>
     <g id="text_3">
      <!-- 2002 -->
      <g transform="translate(89.446517 319.651314) rotate(-45) scale(0.1 -0.1)">
       <use xlink:href="#DejaVuSans-32"/>
       <use xlink:href="#DejaVuSans-30" x="63.623047"/>
       <use xlink:href="#DejaVuSans-30" x="127.246094"/>
       <use xlink:href="#DejaVuSans-32" x="190.869141"/>
      </g>
     </g>
    </g>
    <g id="xtick_4">
     <g id="line2d_4">
      <g>
       <use xlink:href="#m4d5bbecb8d" x="112.452949" y="289.28254" style="stroke: #000000; stroke-width: 0.8"/>
      </g>
     </g>
     <g id="text_4">
      <!-- 2003 -->
      <g transform="translate(105.406188 319.651314) rotate(-45) scale(0.1 -0.1)">
       <defs>
        <path id="DejaVuSans-33" d="M 2597 2516 
Q 3050 2419 3304 2112 
Q 3559 1806 3559 1356 
Q 3559 666 3084 287 
Q 2609 -91 1734 -91 
Q 1441 -91 1130 -33 
Q 819 25 488 141 
L 488 750 
Q 750 597 1062 519 
Q 1375 441 1716 441 
Q 2309 441 2620 675 
Q 2931 909 2931 1356 
Q 2931 1769 2642 2001 
Q 2353 2234 1838 2234 
L 1294 2234 
L 1294 2753 
L 1863 2753 
Q 2328 2753 2575 2939 
Q 2822 3125 2822 3475 
Q 2822 3834 2567 4026 
Q 2313 4219 1838 4219 
Q 1578 4219 1281 4162 
Q 984 4106 628 3988 
L 628 4550 
Q 988 4650 1302 4700 
Q 1616 4750 1894 4750 
Q 2613 4750 3031 4423 
Q 3450 4097 3450 3541 
Q 3450 3153 3228 2886 
Q 3006 2619 2597 2516 
z
" transform="scale(0.015625)"/>
       </defs>
       <use xlink:href="#DejaVuSans-32"/>
       <use xlink:href="#DejaVuSans-30" x="63.623047"/>
       <use xlink:href="#DejaVuSans-30" x="127.246094"/>
       <use xlink:href="#DejaVuSans-33" x="190.869141"/>
      </g>
     </g>
    </g>
    <g id="xtick_5">
     <g id="line2d_5">
      <g>
       <use xlink:href="#m4d5bbecb8d" x="128.41262" y="289.28254" style="stroke: #000000; stroke-width: 0.8"/>
      </g>
     </g>
     <g id="text_5">
      <!-- 2004 -->
      <g transform="translate(121.365859 319.651314) rotate(-45) scale(0.1 -0.1)">
       <defs>
        <path id="DejaVuSans-34" d="M 2419 4116 
L 825 1625 
L 2419 1625 
L 2419 4116 
z
M 2253 4666 
L 3047 4666 
L 3047 1625 
L 3713 1625 
L 3713 1100 
L 3047 1100 
L 3047 0 
L 2419 0 
L 2419 1100 
L 313 1100 
L 313 1709 
L 2253 4666 
z
" transform="scale(0.015625)"/>
       </defs>
       <use xlink:href="#DejaVuSans-32"/>
       <use xlink:href="#DejaVuSans-30" x="63.623047"/>
       <use xlink:href="#DejaVuSans-30" x="127.246094"/>
       <use xlink:href="#DejaVuSans-34" x="190.869141"/>
      </g>
     </g>
    </g>
    <g id="xtick_6">
     <g id="line2d_6">
      <g>
       <use xlink:href="#m4d5bbecb8d" x="144.372292" y="289.28254" style="stroke: #000000; stroke-width: 0.8"/>
      </g>
     </g>
     <g id="text_6">
      <!-- 2005 -->
      <g transform="translate(137.325531 319.651314) rotate(-45) scale(0.1 -0.1)">
       <defs>
        <path id="DejaVuSans-35" d="M 691 4666 
L 3169 4666 
L 3169 4134 
L 1269 4134 
L 1269 2991 
Q 1406 3038 1543 3061 
Q 1681 3084 1819 3084 
Q 2600 3084 3056 2656 
Q 3513 2228 3513 1497 
Q 3513 744 3044 326 
Q 2575 -91 1722 -91 
Q 1428 -91 1123 -41 
Q 819 9 494 109 
L 494 744 
Q 775 591 1075 516 
Q 1375 441 1709 441 
Q 2250 441 2565 725 
Q 2881 1009 2881 1497 
Q 2881 1984 2565 2268 
Q 2250 2553 1709 2553 
Q 1456 2553 1204 2497 
Q 953 2441 691 2322 
L 691 4666 
z
" transform="scale(0.015625)"/>
       </defs>
       <use xlink:href="#DejaVuSans-32"/>
       <use xlink:href="#DejaVuSans-30" x="63.623047"/>
       <use xlink:href="#DejaVuSans-30" x="127.246094"/>
       <use xlink:href="#DejaVuSans-35" x="190.869141"/>
      </g>
     </g>
    </g>
    <g id="xtick_7">
     <g id="line2d_7">
      <g>
       <use xlink:href="#m4d5bbecb8d" x="160.331963" y="289.28254" style="stroke: #000000; stroke-width: 0.8"/>
      </g>
     </g>
     <g id="text_7">
      <!-- 2006 -->
      <g transform="translate(153.285202 319.651314) rotate(-45) scale(0.1 -0.1)">
       <defs>
        <path id="DejaVuSans-36" d="M 2113 2584 
Q 1688 2584 1439 2293 
Q 1191 2003 1191 1497 
Q 1191 994 1439 701 
Q 1688 409 2113 409 
Q 2538 409 2786 701 
Q 3034 994 3034 1497 
Q 3034 2003 2786 2293 
Q 2538 2584 2113 2584 
z
M 3366 4563 
L 3366 3988 
Q 3128 4100 2886 4159 
Q 2644 4219 2406 4219 
Q 1781 4219 1451 3797 
Q 1122 3375 1075 2522 
Q 1259 2794 1537 2939 
Q 1816 3084 2150 3084 
Q 2853 3084 3261 2657 
Q 3669 2231 3669 1497 
Q 3669 778 3244 343 
Q 2819 -91 2113 -91 
Q 1303 -91 875 529 
Q 447 1150 447 2328 
Q 447 3434 972 4092 
Q 1497 4750 2381 4750 
Q 2619 4750 2861 4703 
Q 3103 4656 3366 4563 
z
" transform="scale(0.015625)"/>
       </defs>
       <use xlink:href="#DejaVuSans-32"/>
       <use xlink:href="#DejaVuSans-30" x="63.623047"/>
       <use xlink:href="#DejaVuSans-30" x="127.246094"/>
       <use xlink:href="#DejaVuSans-36" x="190.869141"/>
      </g>
     </g>
    </g>
    <g id="xtick_8">
     <g id="line2d_8">
      <g>
       <use xlink:href="#m4d5bbecb8d" x="176.291635" y="289.28254" style="stroke: #000000; stroke-width: 0.8"/>
      </g>
     </g>
     <g id="text_8">
      <!-- 2007 -->
      <g transform="translate(169.244874 319.651314) rotate(-45) scale(0.1 -0.1)">
       <defs>
        <path id="DejaVuSans-37" d="M 525 4666 
L 3525 4666 
L 3525 4397 
L 1831 0 
L 1172 0 
L 2766 4134 
L 525 4134 
L 525 4666 
z
" transform="scale(0.015625)"/>
       </defs>
       <use xlink:href="#DejaVuSans-32"/>
       <use xlink:href="#DejaVuSans-30" x="63.623047"/>
       <use xlink:href="#DejaVuSans-30" x="127.246094"/>
       <use xlink:href="#DejaVuSans-37" x="190.869141"/>
      </g>
     </g>
    </g>
    <g id="xtick_9">
     <g id="line2d_9">
      <g>
       <use xlink:href="#m4d5bbecb8d" x="192.251306" y="289.28254" style="stroke: #000000; stroke-width: 0.8"/>
      </g>
     </g>
     <g id="text_9">
      <!-- 2008 -->
      <g transform="translate(185.204545 319.651314) rotate(-45) scale(0.1 -0.1)">
       <defs>
        <path id="DejaVuSans-38" d="M 2034 2216 
Q 1584 2216 1326 1975 
Q 1069 1734 1069 1313 
Q 1069 891 1326 650 
Q 1584 409 2034 409 
Q 2484 409 2743 651 
Q 3003 894 3003 1313 
Q 3003 1734 2745 1975 
Q 2488 2216 2034 2216 
z
M 1403 2484 
Q 997 2584 770 2862 
Q 544 3141 544 3541 
Q 544 4100 942 4425 
Q 1341 4750 2034 4750 
Q 2731 4750 3128 4425 
Q 3525 4100 3525 3541 
Q 3525 3141 3298 2862 
Q 3072 2584 2669 2484 
Q 3125 2378 3379 2068 
Q 3634 1759 3634 1313 
Q 3634 634 3220 271 
Q 2806 -91 2034 -91 
Q 1263 -91 848 271 
Q 434 634 434 1313 
Q 434 1759 690 2068 
Q 947 2378 1403 2484 
z
M 1172 3481 
Q 1172 3119 1398 2916 
Q 1625 2713 2034 2713 
Q 2441 2713 2670 2916 
Q 2900 3119 2900 3481 
Q 2900 3844 2670 4047 
Q 2441 4250 2034 4250 
Q 1625 4250 1398 4047 
Q 1172 3844 1172 3481 
z
" transform="scale(0.015625)"/>
       </defs>
       <use xlink:href="#DejaVuSans-32"/>
       <use xlink:href="#DejaVuSans-30" x="63.623047"/>
       <use xlink:href="#DejaVuSans-30" x="127.246094"/>
       <use xlink:href="#DejaVuSans-38" x="190.869141"/>
      </g>
     </g>
    </g>
    <g id="xtick_10">
     <g id="line2d_10">
      <g>
       <use xlink:href="#m4d5bbecb8d" x="208.210978" y="289.28254" style="stroke: #000000; stroke-width: 0.8"/>
      </g>
     </g>
     <g id="text_10">
      <!-- 2009 -->
      <g transform="translate(201.164217 319.651314) rotate(-45) scale(0.1 -0.1)">
       <defs>
        <path id="DejaVuSans-39" d="M 703 97 
L 703 672 
Q 941 559 1184 500 
Q 1428 441 1663 441 
Q 2288 441 2617 861 
Q 2947 1281 2994 2138 
Q 2813 1869 2534 1725 
Q 2256 1581 1919 1581 
Q 1219 1581 811 2004 
Q 403 2428 403 3163 
Q 403 3881 828 4315 
Q 1253 4750 1959 4750 
Q 2769 4750 3195 4129 
Q 3622 3509 3622 2328 
Q 3622 1225 3098 567 
Q 2575 -91 1691 -91 
Q 1453 -91 1209 -44 
Q 966 3 703 97 
z
M 1959 2075 
Q 2384 2075 2632 2365 
Q 2881 2656 2881 3163 
Q 2881 3666 2632 3958 
Q 2384 4250 1959 4250 
Q 1534 4250 1286 3958 
Q 1038 3666 1038 3163 
Q 1038 2656 1286 2365 
Q 1534 2075 1959 2075 
z
" transform="scale(0.015625)"/>
       </defs>
       <use xlink:href="#DejaVuSans-32"/>
       <use xlink:href="#DejaVuSans-30" x="63.623047"/>
       <use xlink:href="#DejaVuSans-30" x="127.246094"/>
       <use xlink:href="#DejaVuSans-39" x="190.869141"/>
      </g>
     </g>
    </g>
    <g id="xtick_11">
     <g id="line2d_11">
      <g>
       <use xlink:href="#m4d5bbecb8d" x="224.170649" y="289.28254" style="stroke: #000000; stroke-width: 0.8"/>
      </g>
     </g>
     <g id="text_11">
      <!-- 2010 -->
      <g transform="translate(217.123888 319.651314) rotate(-45) scale(0.1 -0.1)">
       <use xlink:href="#DejaVuSans-32"/>
       <use xlink:href="#DejaVuSans-30" x="63.623047"/>
       <use xlink:href="#DejaVuSans-31" x="127.246094"/>
       <use xlink:href="#DejaVuSans-30" x="190.869141"/>
      </g>
     </g>
    </g>
    <g id="xtick_12">
     <g id="line2d_12">
      <g>
       <use xlink:href="#m4d5bbecb8d" x="240.130321" y="289.28254" style="stroke: #000000; stroke-width: 0.8"/>
      </g>
     </g>
     <g id="text_12">
      <!-- 2011 -->
      <g transform="translate(233.08356 319.651314) rotate(-45) scale(0.1 -0.1)">
       <use xlink:href="#DejaVuSans-32"/>
       <use xlink:href="#DejaVuSans-30" x="63.623047"/>
       <use xlink:href="#DejaVuSans-31" x="127.246094"/>
       <use xlink:href="#DejaVuSans-31" x="190.869141"/>
      </g>
     </g>
    </g>
    <g id="xtick_13">
     <g id="line2d_13">
      <g>
       <use xlink:href="#m4d5bbecb8d" x="256.089992" y="289.28254" style="stroke: #000000; stroke-width: 0.8"/>
      </g>
     </g>
     <g id="text_13">
      <!-- 2012 -->
      <g transform="translate(249.043231 319.651314) rotate(-45) scale(0.1 -0.1)">
       <use xlink:href="#DejaVuSans-32"/>
       <use xlink:href="#DejaVuSans-30" x="63.623047"/>
       <use xlink:href="#DejaVuSans-31" x="127.246094"/>
       <use xlink:href="#DejaVuSans-32" x="190.869141"/>
      </g>
     </g>
    </g>
    <g id="xtick_14">
     <g id="line2d_14">
      <g>
       <use xlink:href="#m4d5bbecb8d" x="272.049663" y="289.28254" style="stroke: #000000; stroke-width: 0.8"/>
      </g>
     </g>
     <g id="text_14">
      <!-- 2013 -->
      <g transform="translate(265.002902 319.651314) rotate(-45) scale(0.1 -0.1)">
       <use xlink:href="#DejaVuSans-32"/>
       <use xlink:href="#DejaVuSans-30" x="63.623047"/>
       <use xlink:href="#DejaVuSans-31" x="127.246094"/>
       <use xlink:href="#DejaVuSans-33" x="190.869141"/>
      </g>
     </g>
    </g>
    <g id="xtick_15">
     <g id="line2d_15">
      <g>
       <use xlink:href="#m4d5bbecb8d" x="288.009335" y="289.28254" style="stroke: #000000; stroke-width: 0.8"/>
      </g>
     </g>
     <g id="text_15">
      <!-- 2014 -->
      <g transform="translate(280.962574 319.651314) rotate(-45) scale(0.1 -0.1)">
       <use xlink:href="#DejaVuSans-32"/>
       <use xlink:href="#DejaVuSans-30" x="63.623047"/>
       <use xlink:href="#DejaVuSans-31" x="127.246094"/>
       <use xlink:href="#DejaVuSans-34" x="190.869141"/>
      </g>
     </g>
    </g>
    <g id="xtick_16">
     <g id="line2d_16">
      <g>
       <use xlink:href="#m4d5bbecb8d" x="303.969006" y="289.28254" style="stroke: #000000; stroke-width: 0.8"/>
      </g>
     </g>
     <g id="text_16">
      <!-- 2015 -->
      <g transform="translate(296.922245 319.651314) rotate(-45) scale(0.1 -0.1)">
       <use xlink:href="#DejaVuSans-32"/>
       <use xlink:href="#DejaVuSans-30" x="63.623047"/>
       <use xlink:href="#DejaVuSans-31" x="127.246094"/>
       <use xlink:href="#DejaVuSans-35" x="190.869141"/>
      </g>
     </g>
    </g>
    <g id="xtick_17">
     <g id="line2d_17">
      <g>
       <use xlink:href="#m4d5bbecb8d" x="319.928678" y="289.28254" style="stroke: #000000; stroke-width: 0.8"/>
      </g>
     </g>
     <g id="text_17">
      <!-- 2016 -->
      <g transform="translate(312.881917 319.651314) rotate(-45) scale(0.1 -0.1)">
       <use xlink:href="#DejaVuSans-32"/>
       <use xlink:href="#DejaVuSans-30" x="63.623047"/>
       <use xlink:href="#DejaVuSans-31" x="127.246094"/>
       <use xlink:href="#DejaVuSans-36" x="190.869141"/>
      </g>
     </g>
    </g>
    <g id="xtick_18">
     <g id="line2d_18">
      <g>
       <use xlink:href="#m4d5bbecb8d" x="335.888349" y="289.28254" style="stroke: #000000; stroke-width: 0.8"/>
      </g>
     </g>
     <g id="text_18">
      <!-- 2017 -->
      <g transform="translate(328.841588 319.651314) rotate(-45) scale(0.1 -0.1)">
       <use xlink:href="#DejaVuSans-32"/>
       <use xlink:href="#DejaVuSans-30" x="63.623047"/>
       <use xlink:href="#DejaVuSans-31" x="127.246094"/>
       <use xlink:href="#DejaVuSans-37" x="190.869141"/>
      </g>
     </g>
    </g>
    <g id="xtick_19">
     <g id="line2d_19">
      <g>
       <use xlink:href="#m4d5bbecb8d" x="351.848021" y="289.28254" style="stroke: #000000; stroke-width: 0.8"/>
      </g>
     </g>
     <g id="text_19">
      <!-- 2018 -->
      <g transform="translate(344.80126 319.651314) rotate(-45) scale(0.1 -0.1)">
       <use xlink:href="#DejaVuSans-32"/>
       <use xlink:href="#DejaVuSans-30" x="63.623047"/>
       <use xlink:href="#DejaVuSans-31" x="127.246094"/>
       <use xlink:href="#DejaVuSans-38" x="190.869141"/>
      </g>
     </g>
    </g>
    <g id="xtick_20">
     <g id="line2d_20">
      <g>
       <use xlink:href="#m4d5bbecb8d" x="367.807692" y="289.28254" style="stroke: #000000; stroke-width: 0.8"/>
      </g>
     </g>
     <g id="text_20">
      <!-- 2019 -->
      <g transform="translate(360.760931 319.651314) rotate(-45) scale(0.1 -0.1)">
       <use xlink:href="#DejaVuSans-32"/>
       <use xlink:href="#DejaVuSans-30" x="63.623047"/>
       <use xlink:href="#DejaVuSans-31" x="127.246094"/>
       <use xlink:href="#DejaVuSans-39" x="190.869141"/>
      </g>
     </g>
    </g>
    <g id="xtick_21">
     <g id="line2d_21">
      <g>
       <use xlink:href="#m4d5bbecb8d" x="383.767364" y="289.28254" style="stroke: #000000; stroke-width: 0.8"/>
      </g>
     </g>
     <g id="text_21">
      <!-- 2020 -->
      <g transform="translate(376.720602 319.651314) rotate(-45) scale(0.1 -0.1)">
       <use xlink:href="#DejaVuSans-32"/>
       <use xlink:href="#DejaVuSans-30" x="63.623047"/>
       <use xlink:href="#DejaVuSans-32" x="127.246094"/>
       <use xlink:href="#DejaVuSans-30" x="190.869141"/>
      </g>
     </g>
    </g>
    <g id="xtick_22">
     <g id="line2d_22">
      <g>
       <use xlink:href="#m4d5bbecb8d" x="399.727035" y="289.28254" style="stroke: #000000; stroke-width: 0.8"/>
      </g>
     </g>
     <g id="text_22">
      <!-- 2021 -->
      <g transform="translate(392.680274 319.651314) rotate(-45) scale(0.1 -0.1)">
       <use xlink:href="#DejaVuSans-32"/>
       <use xlink:href="#DejaVuSans-30" x="63.623047"/>
       <use xlink:href="#DejaVuSans-32" x="127.246094"/>
       <use xlink:href="#DejaVuSans-31" x="190.869141"/>
      </g>
     </g>
    </g>
    <g id="xtick_23">
     <g id="line2d_23">
      <g>
       <use xlink:href="#m4d5bbecb8d" x="415.686706" y="289.28254" style="stroke: #000000; stroke-width: 0.8"/>
      </g>
     </g>
     <g id="text_23">
      <!-- 2022 -->
      <g transform="translate(408.639945 319.651314) rotate(-45) scale(0.1 -0.1)">
       <use xlink:href="#DejaVuSans-32"/>
       <use xlink:href="#DejaVuSans-30" x="63.623047"/>
       <use xlink:href="#DejaVuSans-32" x="127.246094"/>
       <use xlink:href="#DejaVuSans-32" x="190.869141"/>
      </g>
     </g>
    </g>
    <g id="xtick_24">
     <g id="line2d_24">
      <g>
       <use xlink:href="#m4d5bbecb8d" x="431.646378" y="289.28254" style="stroke: #000000; stroke-width: 0.8"/>
      </g>
     </g>
     <g id="text_24">
      <!-- 2023 -->
      <g transform="translate(424.599617 319.651314) rotate(-45) scale(0.1 -0.1)">
       <use xlink:href="#DejaVuSans-32"/>
       <use xlink:href="#DejaVuSans-30" x="63.623047"/>
       <use xlink:href="#DejaVuSans-32" x="127.246094"/>
       <use xlink:href="#DejaVuSans-33" x="190.869141"/>
      </g>
     </g>
    </g>
    <g id="text_25">
     <!-- Year -->
     <g transform="translate(237.522656 332.720312) scale(0.1 -0.1)">
      <defs>
       <path id="DejaVuSans-59" d="M -13 4666 
L 666 4666 
L 1959 2747 
L 3244 4666 
L 3922 4666 
L 2272 2222 
L 2272 0 
L 1638 0 
L 1638 2222 
L -13 4666 
z
" transform="scale(0.015625)"/>
       <path id="DejaVuSans-65" d="M 3597 1894 
L 3597 1613 
L 953 1613 
Q 991 1019 1311 708 
Q 1631 397 2203 397 
Q 2534 397 2845 478 
Q 3156 559 3463 722 
L 3463 178 
Q 3153 47 2828 -22 
Q 2503 -91 2169 -91 
Q 1331 -91 842 396 
Q 353 884 353 1716 
Q 353 2575 817 3079 
Q 1281 3584 2069 3584 
Q 2775 3584 3186 3129 
Q 3597 2675 3597 1894 
z
M 3022 2063 
Q 3016 2534 2758 2815 
Q 2500 3097 2075 3097 
Q 1594 3097 1305 2825 
Q 1016 2553 972 2059 
L 3022 2063 
z
" transform="scale(0.015625)"/>
       <path id="DejaVuSans-61" d="M 2194 1759 
Q 1497 1759 1228 1600 
Q 959 1441 959 1056 
Q 959 750 1161 570 
Q 1363 391 1709 391 
Q 2188 391 2477 730 
Q 2766 1069 2766 1631 
L 2766 1759 
L 2194 1759 
z
M 3341 1997 
L 3341 0 
L 2766 0 
L 2766 531 
Q 2569 213 2275 61 
Q 1981 -91 1556 -91 
Q 1019 -91 701 211 
Q 384 513 384 1019 
Q 384 1609 779 1909 
Q 1175 2209 1959 2209 
L 2766 2209 
L 2766 2266 
Q 2766 2663 2505 2880 
Q 2244 3097 1772 3097 
Q 1472 3097 1187 3025 
Q 903 2953 641 2809 
L 641 3341 
Q 956 3463 1253 3523 
Q 1550 3584 1831 3584 
Q 2591 3584 2966 3190 
Q 3341 2797 3341 1997 
z
" transform="scale(0.015625)"/>
       <path id="DejaVuSans-72" d="M 2631 2963 
Q 2534 3019 2420 3045 
Q 2306 3072 2169 3072 
Q 1681 3072 1420 2755 
Q 1159 2438 1159 1844 
L 1159 0 
L 581 0 
L 581 3500 
L 1159 3500 
L 1159 2956 
Q 1341 3275 1631 3429 
Q 1922 3584 2338 3584 
Q 2397 3584 2469 3576 
Q 2541 3569 2628 3553 
L 2631 2963 
z
" transform="scale(0.015625)"/>
      </defs>
      <use xlink:href="#DejaVuSans-59"/>
      <use xlink:href="#DejaVuSans-65" x="47.833984"/>
      <use xlink:href="#DejaVuSans-61" x="109.357422"/>
      <use xlink:href="#DejaVuSans-72" x="170.636719"/>
     </g>
    </g>
   </g>
   <g id="matplotlib.axis_2">
    <g id="ytick_1">
     <g id="line2d_25">
      <path d="M 46.220313 277.31143 
L 450 277.31143 
" clip-path="url(#pe1cc90b0d4)" style="fill: none; stroke-dasharray: 2.96,1.28; stroke-dashoffset: 0; stroke: #b0b0b0; stroke-opacity: 0.5; stroke-width: 0.8"/>
     </g>
     <g id="line2d_26">
      <defs>
       <path id="m960e9a52fb" d="M 0 0 
L -3.5 0 
" style="stroke: #000000; stroke-width: 0.8"/>
      </defs>
      <g>
       <use xlink:href="#m960e9a52fb" x="46.220313" y="277.31143" style="stroke: #000000; stroke-width: 0.8"/>
      </g>
     </g>
     <g id="text_26">
      <!-- −6 -->
      <g transform="translate(24.478125 281.110649) scale(0.1 -0.1)">
       <defs>
        <path id="DejaVuSans-2212" d="M 678 2272 
L 4684 2272 
L 4684 1741 
L 678 1741 
L 678 2272 
z
" transform="scale(0.015625)"/>
       </defs>
       <use xlink:href="#DejaVuSans-2212"/>
       <use xlink:href="#DejaVuSans-36" x="83.789062"/>
      </g>
     </g>
    </g>
    <g id="ytick_2">
     <g id="line2d_27">
      <path d="M 46.220313 259.576452 
L 450 259.576452 
" clip-path="url(#pe1cc90b0d4)" style="fill: none; stroke-dasharray: 2.96,1.28; stroke-dashoffset: 0; stroke: #b0b0b0; stroke-opacity: 0.5; stroke-width: 0.8"/>
     </g>
     <g id="line2d_28">
      <g>
       <use xlink:href="#m960e9a52fb" x="46.220313" y="259.576452" style="stroke: #000000; stroke-width: 0.8"/>
      </g>
     </g>
     <g id="text_27">
      <!-- −4 -->
      <g transform="translate(24.478125 263.375671) scale(0.1 -0.1)">
       <use xlink:href="#DejaVuSans-2212"/>
       <use xlink:href="#DejaVuSans-34" x="83.789062"/>
      </g>
     </g>
    </g>
    <g id="ytick_3">
     <g id="line2d_29">
      <path d="M 46.220313 241.841475 
L 450 241.841475 
" clip-path="url(#pe1cc90b0d4)" style="fill: none; stroke-dasharray: 2.96,1.28; stroke-dashoffset: 0; stroke: #b0b0b0; stroke-opacity: 0.5; stroke-width: 0.8"/>
     </g>
     <g id="line2d_30">
      <g>
       <use xlink:href="#m960e9a52fb" x="46.220313" y="241.841475" style="stroke: #000000; stroke-width: 0.8"/>
      </g>
     </g>
     <g id="text_28">
      <!-- −2 -->
      <g transform="translate(24.478125 245.640694) scale(0.1 -0.1)">
       <use xlink:href="#DejaVuSans-2212"/>
       <use xlink:href="#DejaVuSans-32" x="83.789062"/>
      </g>
     </g>
    </g>
    <g id="ytick_4">
     <g id="line2d_31">
      <path d="M 46.220313 224.106498 
L 450 224.106498 
" clip-path="url(#pe1cc90b0d4)" style="fill: none; stroke-dasharray: 2.96,1.28; stroke-dashoffset: 0; stroke: #b0b0b0; stroke-opacity: 0.5; stroke-width: 0.8"/>
     </g>
     <g id="line2d_32">
      <g>
       <use xlink:href="#m960e9a52fb" x="46.220313" y="224.106498" style="stroke: #000000; stroke-width: 0.8"/>
      </g>
     </g>
     <g id="text_29">
      <!-- 0 -->
      <g transform="translate(32.857813 227.905716) scale(0.1 -0.1)">
       <use xlink:href="#DejaVuSans-30"/>
      </g>
     </g>
    </g>
    <g id="ytick_5">
     <g id="line2d_33">
      <path d="M 46.220313 206.37152 
L 450 206.37152 
" clip-path="url(#pe1cc90b0d4)" style="fill: none; stroke-dasharray: 2.96,1.28; stroke-dashoffset: 0; stroke: #b0b0b0; stroke-opacity: 0.5; stroke-width: 0.8"/>
     </g>
     <g id="line2d_34">
      <g>
       <use xlink:href="#m960e9a52fb" x="46.220313" y="206.37152" style="stroke: #000000; stroke-width: 0.8"/>
      </g>
     </g>
     <g id="text_30">
      <!-- 2 -->
      <g transform="translate(32.857813 210.170739) scale(0.1 -0.1)">
       <use xlink:href="#DejaVuSans-32"/>
      </g>
     </g>
    </g>
    <g id="ytick_6">
     <g id="line2d_35">
      <path d="M 46.220313 188.636543 
L 450 188.636543 
" clip-path="url(#pe1cc90b0d4)" style="fill: none; stroke-dasharray: 2.96,1.28; stroke-dashoffset: 0; stroke: #b0b0b0; stroke-opacity: 0.5; stroke-width: 0.8"/>
     </g>
     <g id="line2d_36">
      <g>
       <use xlink:href="#m960e9a52fb" x="46.220313" y="188.636543" style="stroke: #000000; stroke-width: 0.8"/>
      </g>
     </g>
     <g id="text_31">
      <!-- 4 -->
      <g transform="translate(32.857813 192.435762) scale(0.1 -0.1)">
       <use xlink:href="#DejaVuSans-34"/>
      </g>
     </g>
    </g>
    <g id="ytick_7">
     <g id="line2d_37">
      <path d="M 46.220313 170.901565 
L 450 170.901565 
" clip-path="url(#pe1cc90b0d4)" style="fill: none; stroke-dasharray: 2.96,1.28; stroke-dashoffset: 0; stroke: #b0b0b0; stroke-opacity: 0.5; stroke-width: 0.8"/>
     </g>
     <g id="line2d_38">
      <g>
       <use xlink:href="#m960e9a52fb" x="46.220313" y="170.901565" style="stroke: #000000; stroke-width: 0.8"/>
      </g>
     </g>
     <g id="text_32">
      <!-- 6 -->
      <g transform="translate(32.857813 174.700784) scale(0.1 -0.1)">
       <use xlink:href="#DejaVuSans-36"/>
      </g>
     </g>
    </g>
    <g id="ytick_8">
     <g id="line2d_39">
      <path d="M 46.220313 153.166588 
L 450 153.166588 
" clip-path="url(#pe1cc90b0d4)" style="fill: none; stroke-dasharray: 2.96,1.28; stroke-dashoffset: 0; stroke: #b0b0b0; stroke-opacity: 0.5; stroke-width: 0.8"/>
     </g>
     <g id="line2d_40">
      <g>
       <use xlink:href="#m960e9a52fb" x="46.220313" y="153.166588" style="stroke: #000000; stroke-width: 0.8"/>
      </g>
     </g>
     <g id="text_33">
      <!-- 8 -->
      <g transform="translate(32.857813 156.965807) scale(0.1 -0.1)">
       <use xlink:href="#DejaVuSans-38"/>
      </g>
     </g>
    </g>
    <g id="ytick_9">
     <g id="line2d_41">
      <path d="M 46.220313 135.431611 
L 450 135.431611 
" clip-path="url(#pe1cc90b0d4)" style="fill: none; stroke-dasharray: 2.96,1.28; stroke-dashoffset: 0; stroke: #b0b0b0; stroke-opacity: 0.5; stroke-width: 0.8"/>
     </g>
     <g id="line2d_42">
      <g>
       <use xlink:href="#m960e9a52fb" x="46.220313" y="135.431611" style="stroke: #000000; stroke-width: 0.8"/>
      </g>
     </g>
     <g id="text_34">
      <!-- 10 -->
      <g transform="translate(26.495313 139.230829) scale(0.1 -0.1)">
       <use xlink:href="#DejaVuSans-31"/>
       <use xlink:href="#DejaVuSans-30" x="63.623047"/>
      </g>
     </g>
    </g>
    <g id="ytick_10">
     <g id="line2d_43">
      <path d="M 46.220313 117.696633 
L 450 117.696633 
" clip-path="url(#pe1cc90b0d4)" style="fill: none; stroke-dasharray: 2.96,1.28; stroke-dashoffset: 0; stroke: #b0b0b0; stroke-opacity: 0.5; stroke-width: 0.8"/>
     </g>
     <g id="line2d_44">
      <g>
       <use xlink:href="#m960e9a52fb" x="46.220313" y="117.696633" style="stroke: #000000; stroke-width: 0.8"/>
      </g>
     </g>
     <g id="text_35">
      <!-- 12 -->
      <g transform="translate(26.495313 121.495852) scale(0.1 -0.1)">
       <use xlink:href="#DejaVuSans-31"/>
       <use xlink:href="#DejaVuSans-32" x="63.623047"/>
      </g>
     </g>
    </g>
    <g id="ytick_11">
     <g id="line2d_45">
      <path d="M 46.220313 99.961656 
L 450 99.961656 
" clip-path="url(#pe1cc90b0d4)" style="fill: none; stroke-dasharray: 2.96,1.28; stroke-dashoffset: 0; stroke: #b0b0b0; stroke-opacity: 0.5; stroke-width: 0.8"/>
     </g>
     <g id="line2d_46">
      <g>
       <use xlink:href="#m960e9a52fb" x="46.220313" y="99.961656" style="stroke: #000000; stroke-width: 0.8"/>
      </g>
     </g>
     <g id="text_36">
      <!-- 14 -->
      <g transform="translate(26.495313 103.760874) scale(0.1 -0.1)">
       <use xlink:href="#DejaVuSans-31"/>
       <use xlink:href="#DejaVuSans-34" x="63.623047"/>
      </g>
     </g>
    </g>
    <g id="ytick_12">
     <g id="line2d_47">
      <path d="M 46.220313 82.226678 
L 450 82.226678 
" clip-path="url(#pe1cc90b0d4)" style="fill: none; stroke-dasharray: 2.96,1.28; stroke-dashoffset: 0; stroke: #b0b0b0; stroke-opacity: 0.5; stroke-width: 0.8"/>
     </g>
     <g id="line2d_48">
      <g>
       <use xlink:href="#m960e9a52fb" x="46.220313" y="82.226678" style="stroke: #000000; stroke-width: 0.8"/>
      </g>
     </g>
     <g id="text_37">
      <!-- 16 -->
      <g transform="translate(26.495313 86.025897) scale(0.1 -0.1)">
       <use xlink:href="#DejaVuSans-31"/>
       <use xlink:href="#DejaVuSans-36" x="63.623047"/>
      </g>
     </g>
    </g>
    <g id="ytick_13">
     <g id="line2d_49">
      <path d="M 46.220313 64.491701 
L 450 64.491701 
" clip-path="url(#pe1cc90b0d4)" style="fill: none; stroke-dasharray: 2.96,1.28; stroke-dashoffset: 0; stroke: #b0b0b0; stroke-opacity: 0.5; stroke-width: 0.8"/>
     </g>
     <g id="line2d_50">
      <g>
       <use xlink:href="#m960e9a52fb" x="46.220313" y="64.491701" style="stroke: #000000; stroke-width: 0.8"/>
      </g>
     </g>
     <g id="text_38">
      <!-- 18 -->
      <g transform="translate(26.495313 68.29092) scale(0.1 -0.1)">
       <use xlink:href="#DejaVuSans-31"/>
       <use xlink:href="#DejaVuSans-38" x="63.623047"/>
      </g>
     </g>
    </g>
    <g id="ytick_14">
     <g id="line2d_51">
      <path d="M 46.220313 46.756723 
L 450 46.756723 
" clip-path="url(#pe1cc90b0d4)" style="fill: none; stroke-dasharray: 2.96,1.28; stroke-dashoffset: 0; stroke: #b0b0b0; stroke-opacity: 0.5; stroke-width: 0.8"/>
     </g>
     <g id="line2d_52">
      <g>
       <use xlink:href="#m960e9a52fb" x="46.220313" y="46.756723" style="stroke: #000000; stroke-width: 0.8"/>
      </g>
     </g>
     <g id="text_39">
      <!-- 20 -->
      <g transform="translate(26.495313 50.555942) scale(0.1 -0.1)">
       <use xlink:href="#DejaVuSans-32"/>
       <use xlink:href="#DejaVuSans-30" x="63.623047"/>
      </g>
     </g>
    </g>
    <g id="text_40">
     <!-- Consumer price difference from previous year (%) -->
     <g transform="translate(18.398438 283.064395) rotate(-90) scale(0.1 -0.1)">
      <defs>
       <path id="DejaVuSans-43" d="M 4122 4306 
L 4122 3641 
Q 3803 3938 3442 4084 
Q 3081 4231 2675 4231 
Q 1875 4231 1450 3742 
Q 1025 3253 1025 2328 
Q 1025 1406 1450 917 
Q 1875 428 2675 428 
Q 3081 428 3442 575 
Q 3803 722 4122 1019 
L 4122 359 
Q 3791 134 3420 21 
Q 3050 -91 2638 -91 
Q 1578 -91 968 557 
Q 359 1206 359 2328 
Q 359 3453 968 4101 
Q 1578 4750 2638 4750 
Q 3056 4750 3426 4639 
Q 3797 4528 4122 4306 
z
" transform="scale(0.015625)"/>
       <path id="DejaVuSans-6f" d="M 1959 3097 
Q 1497 3097 1228 2736 
Q 959 2375 959 1747 
Q 959 1119 1226 758 
Q 1494 397 1959 397 
Q 2419 397 2687 759 
Q 2956 1122 2956 1747 
Q 2956 2369 2687 2733 
Q 2419 3097 1959 3097 
z
M 1959 3584 
Q 2709 3584 3137 3096 
Q 3566 2609 3566 1747 
Q 3566 888 3137 398 
Q 2709 -91 1959 -91 
Q 1206 -91 779 398 
Q 353 888 353 1747 
Q 353 2609 779 3096 
Q 1206 3584 1959 3584 
z
" transform="scale(0.015625)"/>
       <path id="DejaVuSans-6e" d="M 3513 2113 
L 3513 0 
L 2938 0 
L 2938 2094 
Q 2938 2591 2744 2837 
Q 2550 3084 2163 3084 
Q 1697 3084 1428 2787 
Q 1159 2491 1159 1978 
L 1159 0 
L 581 0 
L 581 3500 
L 1159 3500 
L 1159 2956 
Q 1366 3272 1645 3428 
Q 1925 3584 2291 3584 
Q 2894 3584 3203 3211 
Q 3513 2838 3513 2113 
z
" transform="scale(0.015625)"/>
       <path id="DejaVuSans-73" d="M 2834 3397 
L 2834 2853 
Q 2591 2978 2328 3040 
Q 2066 3103 1784 3103 
Q 1356 3103 1142 2972 
Q 928 2841 928 2578 
Q 928 2378 1081 2264 
Q 1234 2150 1697 2047 
L 1894 2003 
Q 2506 1872 2764 1633 
Q 3022 1394 3022 966 
Q 3022 478 2636 193 
Q 2250 -91 1575 -91 
Q 1294 -91 989 -36 
Q 684 19 347 128 
L 347 722 
Q 666 556 975 473 
Q 1284 391 1588 391 
Q 1994 391 2212 530 
Q 2431 669 2431 922 
Q 2431 1156 2273 1281 
Q 2116 1406 1581 1522 
L 1381 1569 
Q 847 1681 609 1914 
Q 372 2147 372 2553 
Q 372 3047 722 3315 
Q 1072 3584 1716 3584 
Q 2034 3584 2315 3537 
Q 2597 3491 2834 3397 
z
" transform="scale(0.015625)"/>
       <path id="DejaVuSans-75" d="M 544 1381 
L 544 3500 
L 1119 3500 
L 1119 1403 
Q 1119 906 1312 657 
Q 1506 409 1894 409 
Q 2359 409 2629 706 
Q 2900 1003 2900 1516 
L 2900 3500 
L 3475 3500 
L 3475 0 
L 2900 0 
L 2900 538 
Q 2691 219 2414 64 
Q 2138 -91 1772 -91 
Q 1169 -91 856 284 
Q 544 659 544 1381 
z
M 1991 3584 
L 1991 3584 
z
" transform="scale(0.015625)"/>
       <path id="DejaVuSans-6d" d="M 3328 2828 
Q 3544 3216 3844 3400 
Q 4144 3584 4550 3584 
Q 5097 3584 5394 3201 
Q 5691 2819 5691 2113 
L 5691 0 
L 5113 0 
L 5113 2094 
Q 5113 2597 4934 2840 
Q 4756 3084 4391 3084 
Q 3944 3084 3684 2787 
Q 3425 2491 3425 1978 
L 3425 0 
L 2847 0 
L 2847 2094 
Q 2847 2600 2669 2842 
Q 2491 3084 2119 3084 
Q 1678 3084 1418 2786 
Q 1159 2488 1159 1978 
L 1159 0 
L 581 0 
L 581 3500 
L 1159 3500 
L 1159 2956 
Q 1356 3278 1631 3431 
Q 1906 3584 2284 3584 
Q 2666 3584 2933 3390 
Q 3200 3197 3328 2828 
z
" transform="scale(0.015625)"/>
       <path id="DejaVuSans-20" transform="scale(0.015625)"/>
       <path id="DejaVuSans-70" d="M 1159 525 
L 1159 -1331 
L 581 -1331 
L 581 3500 
L 1159 3500 
L 1159 2969 
Q 1341 3281 1617 3432 
Q 1894 3584 2278 3584 
Q 2916 3584 3314 3078 
Q 3713 2572 3713 1747 
Q 3713 922 3314 415 
Q 2916 -91 2278 -91 
Q 1894 -91 1617 61 
Q 1341 213 1159 525 
z
M 3116 1747 
Q 3116 2381 2855 2742 
Q 2594 3103 2138 3103 
Q 1681 3103 1420 2742 
Q 1159 2381 1159 1747 
Q 1159 1113 1420 752 
Q 1681 391 2138 391 
Q 2594 391 2855 752 
Q 3116 1113 3116 1747 
z
" transform="scale(0.015625)"/>
       <path id="DejaVuSans-69" d="M 603 3500 
L 1178 3500 
L 1178 0 
L 603 0 
L 603 3500 
z
M 603 4863 
L 1178 4863 
L 1178 4134 
L 603 4134 
L 603 4863 
z
" transform="scale(0.015625)"/>
       <path id="DejaVuSans-63" d="M 3122 3366 
L 3122 2828 
Q 2878 2963 2633 3030 
Q 2388 3097 2138 3097 
Q 1578 3097 1268 2742 
Q 959 2388 959 1747 
Q 959 1106 1268 751 
Q 1578 397 2138 397 
Q 2388 397 2633 464 
Q 2878 531 3122 666 
L 3122 134 
Q 2881 22 2623 -34 
Q 2366 -91 2075 -91 
Q 1284 -91 818 406 
Q 353 903 353 1747 
Q 353 2603 823 3093 
Q 1294 3584 2113 3584 
Q 2378 3584 2631 3529 
Q 2884 3475 3122 3366 
z
" transform="scale(0.015625)"/>
       <path id="DejaVuSans-64" d="M 2906 2969 
L 2906 4863 
L 3481 4863 
L 3481 0 
L 2906 0 
L 2906 525 
Q 2725 213 2448 61 
Q 2172 -91 1784 -91 
Q 1150 -91 751 415 
Q 353 922 353 1747 
Q 353 2572 751 3078 
Q 1150 3584 1784 3584 
Q 2172 3584 2448 3432 
Q 2725 3281 2906 2969 
z
M 947 1747 
Q 947 1113 1208 752 
Q 1469 391 1925 391 
Q 2381 391 2643 752 
Q 2906 1113 2906 1747 
Q 2906 2381 2643 2742 
Q 2381 3103 1925 3103 
Q 1469 3103 1208 2742 
Q 947 2381 947 1747 
z
" transform="scale(0.015625)"/>
       <path id="DejaVuSans-66" d="M 2375 4863 
L 2375 4384 
L 1825 4384 
Q 1516 4384 1395 4259 
Q 1275 4134 1275 3809 
L 1275 3500 
L 2222 3500 
L 2222 3053 
L 1275 3053 
L 1275 0 
L 697 0 
L 697 3053 
L 147 3053 
L 147 3500 
L 697 3500 
L 697 3744 
Q 697 4328 969 4595 
Q 1241 4863 1831 4863 
L 2375 4863 
z
" transform="scale(0.015625)"/>
       <path id="DejaVuSans-76" d="M 191 3500 
L 800 3500 
L 1894 563 
L 2988 3500 
L 3597 3500 
L 2284 0 
L 1503 0 
L 191 3500 
z
" transform="scale(0.015625)"/>
       <path id="DejaVuSans-79" d="M 2059 -325 
Q 1816 -950 1584 -1140 
Q 1353 -1331 966 -1331 
L 506 -1331 
L 506 -850 
L 844 -850 
Q 1081 -850 1212 -737 
Q 1344 -625 1503 -206 
L 1606 56 
L 191 3500 
L 800 3500 
L 1894 763 
L 2988 3500 
L 3597 3500 
L 2059 -325 
z
" transform="scale(0.015625)"/>
       <path id="DejaVuSans-28" d="M 1984 4856 
Q 1566 4138 1362 3434 
Q 1159 2731 1159 2009 
Q 1159 1288 1364 580 
Q 1569 -128 1984 -844 
L 1484 -844 
Q 1016 -109 783 600 
Q 550 1309 550 2009 
Q 550 2706 781 3412 
Q 1013 4119 1484 4856 
L 1984 4856 
z
" transform="scale(0.015625)"/>
       <path id="DejaVuSans-25" d="M 4653 2053 
Q 4381 2053 4226 1822 
Q 4072 1591 4072 1178 
Q 4072 772 4226 539 
Q 4381 306 4653 306 
Q 4919 306 5073 539 
Q 5228 772 5228 1178 
Q 5228 1588 5073 1820 
Q 4919 2053 4653 2053 
z
M 4653 2450 
Q 5147 2450 5437 2106 
Q 5728 1763 5728 1178 
Q 5728 594 5436 251 
Q 5144 -91 4653 -91 
Q 4153 -91 3862 251 
Q 3572 594 3572 1178 
Q 3572 1766 3864 2108 
Q 4156 2450 4653 2450 
z
M 1428 4353 
Q 1159 4353 1004 4120 
Q 850 3888 850 3481 
Q 850 3069 1003 2837 
Q 1156 2606 1428 2606 
Q 1700 2606 1854 2837 
Q 2009 3069 2009 3481 
Q 2009 3884 1853 4118 
Q 1697 4353 1428 4353 
z
M 4250 4750 
L 4750 4750 
L 1831 -91 
L 1331 -91 
L 4250 4750 
z
M 1428 4750 
Q 1922 4750 2215 4408 
Q 2509 4066 2509 3481 
Q 2509 2891 2217 2550 
Q 1925 2209 1428 2209 
Q 931 2209 642 2551 
Q 353 2894 353 3481 
Q 353 4063 643 4406 
Q 934 4750 1428 4750 
z
" transform="scale(0.015625)"/>
       <path id="DejaVuSans-29" d="M 513 4856 
L 1013 4856 
Q 1481 4119 1714 3412 
Q 1947 2706 1947 2009 
Q 1947 1309 1714 600 
Q 1481 -109 1013 -844 
L 513 -844 
Q 928 -128 1133 580 
Q 1338 1288 1338 2009 
Q 1338 2731 1133 3434 
Q 928 4138 513 4856 
z
" transform="scale(0.015625)"/>
      </defs>
      <use xlink:href="#DejaVuSans-43"/>
      <use xlink:href="#DejaVuSans-6f" x="69.824219"/>
      <use xlink:href="#DejaVuSans-6e" x="131.005859"/>
      <use xlink:href="#DejaVuSans-73" x="194.384766"/>
      <use xlink:href="#DejaVuSans-75" x="246.484375"/>
      <use xlink:href="#DejaVuSans-6d" x="309.863281"/>
      <use xlink:href="#DejaVuSans-65" x="407.275391"/>
      <use xlink:href="#DejaVuSans-72" x="468.798828"/>
      <use xlink:href="#DejaVuSans-20" x="509.912109"/>
      <use xlink:href="#DejaVuSans-70" x="541.699219"/>
      <use xlink:href="#DejaVuSans-72" x="605.175781"/>
      <use xlink:href="#DejaVuSans-69" x="646.289062"/>
      <use xlink:href="#DejaVuSans-63" x="674.072266"/>
      <use xlink:href="#DejaVuSans-65" x="729.052734"/>
      <use xlink:href="#DejaVuSans-20" x="790.576172"/>
      <use xlink:href="#DejaVuSans-64" x="822.363281"/>
      <use xlink:href="#DejaVuSans-69" x="885.839844"/>
      <use xlink:href="#DejaVuSans-66" x="913.623047"/>
      <use xlink:href="#DejaVuSans-66" x="948.828125"/>
      <use xlink:href="#DejaVuSans-65" x="984.033203"/>
      <use xlink:href="#DejaVuSans-72" x="1045.556641"/>
      <use xlink:href="#DejaVuSans-65" x="1084.419922"/>
      <use xlink:href="#DejaVuSans-6e" x="1145.943359"/>
      <use xlink:href="#DejaVuSans-63" x="1209.322266"/>
      <use xlink:href="#DejaVuSans-65" x="1264.302734"/>
      <use xlink:href="#DejaVuSans-20" x="1325.826172"/>
      <use xlink:href="#DejaVuSans-66" x="1357.613281"/>
      <use xlink:href="#DejaVuSans-72" x="1392.818359"/>
      <use xlink:href="#DejaVuSans-6f" x="1431.681641"/>
      <use xlink:href="#DejaVuSans-6d" x="1492.863281"/>
      <use xlink:href="#DejaVuSans-20" x="1590.275391"/>
      <use xlink:href="#DejaVuSans-70" x="1622.0625"/>
      <use xlink:href="#DejaVuSans-72" x="1685.539062"/>
      <use xlink:href="#DejaVuSans-65" x="1724.402344"/>
      <use xlink:href="#DejaVuSans-76" x="1785.925781"/>
      <use xlink:href="#DejaVuSans-69" x="1845.105469"/>
      <use xlink:href="#DejaVuSans-6f" x="1872.888672"/>
      <use xlink:href="#DejaVuSans-75" x="1934.070312"/>
      <use xlink:href="#DejaVuSans-73" x="1997.449219"/>
      <use xlink:href="#DejaVuSans-20" x="2049.548828"/>
      <use xlink:href="#DejaVuSans-79" x="2081.335938"/>
      <use xlink:href="#DejaVuSans-65" x="2140.515625"/>
      <use xlink:href="#DejaVuSans-61" x="2202.039062"/>
      <use xlink:href="#DejaVuSans-72" x="2263.318359"/>
      <use xlink:href="#DejaVuSans-20" x="2304.431641"/>
      <use xlink:href="#DejaVuSans-28" x="2336.21875"/>
      <use xlink:href="#DejaVuSans-25" x="2375.232422"/>
      <use xlink:href="#DejaVuSans-29" x="2470.251953"/>
     </g>
    </g>
   </g>
   <g id="line2d_53">
    <path d="M 64.573935 189.523292 
L 80.533606 182.429301 
L 96.493278 208.145018 
L 112.452949 223.219749 
L 128.41262 199.277529 
L 144.372292 207.258269 
L 160.331963 201.937776 
L 176.291635 199.277529 
L 192.251306 168.241319 
L 208.210978 215.239009 
L 224.170649 210.805265 
L 240.130321 207.258269 
L 256.089992 194.843785 
L 272.049663 211.692013 
L 288.009335 220.559502 
L 303.969006 221.446251 
L 319.928678 217.899256 
L 335.888349 201.937776 
L 351.848021 205.484771 
L 367.807692 199.277529 
L 383.767364 195.730534 
L 399.727035 190.410041 
L 415.686706 90.207418 
L 431.646378 129.224368 
" clip-path="url(#pe1cc90b0d4)" style="fill: none; stroke: #00bdb1; stroke-width: 1.5; stroke-linecap: square"/>
    <defs>
     <path id="maa64b97fba" d="M 0 3 
C 0.795609 3 1.55874 2.683901 2.12132 2.12132 
C 2.683901 1.55874 3 0.795609 3 0 
C 3 -0.795609 2.683901 -1.55874 2.12132 -2.12132 
C 1.55874 -2.683901 0.795609 -3 0 -3 
C -0.795609 -3 -1.55874 -2.683901 -2.12132 -2.12132 
C -2.683901 -1.55874 -3 -0.795609 -3 0 
C -3 0.795609 -2.683901 1.55874 -2.12132 2.12132 
C -1.55874 2.683901 -0.795609 3 0 3 
z
" style="stroke: #026660"/>
    </defs>
    <g clip-path="url(#pe1cc90b0d4)">
     <use xlink:href="#maa64b97fba" x="64.573935" y="189.523292" style="fill: #039188; stroke: #026660"/>
     <use xlink:href="#maa64b97fba" x="80.533606" y="182.429301" style="fill: #039188; stroke: #026660"/>
     <use xlink:href="#maa64b97fba" x="96.493278" y="208.145018" style="fill: #039188; stroke: #026660"/>
     <use xlink:href="#maa64b97fba" x="112.452949" y="223.219749" style="fill: #039188; stroke: #026660"/>
     <use xlink:href="#maa64b97fba" x="128.41262" y="199.277529" style="fill: #039188; stroke: #026660"/>
     <use xlink:href="#maa64b97fba" x="144.372292" y="207.258269" style="fill: #039188; stroke: #026660"/>
     <use xlink:href="#maa64b97fba" x="160.331963" y="201.937776" style="fill: #039188; stroke: #026660"/>
     <use xlink:href="#maa64b97fba" x="176.291635" y="199.277529" style="fill: #039188; stroke: #026660"/>
     <use xlink:href="#maa64b97fba" x="192.251306" y="168.241319" style="fill: #039188; stroke: #026660"/>
     <use xlink:href="#maa64b97fba" x="208.210978" y="215.239009" style="fill: #039188; stroke: #026660"/>
     <use xlink:href="#maa64b97fba" x="224.170649" y="210.805265" style="fill: #039188; stroke: #026660"/>
     <use xlink:href="#maa64b97fba" x="240.130321" y="207.258269" style="fill: #039188; stroke: #026660"/>
     <use xlink:href="#maa64b97fba" x="256.089992" y="194.843785" style="fill: #039188; stroke: #026660"/>
     <use xlink:href="#maa64b97fba" x="272.049663" y="211.692013" style="fill: #039188; stroke: #026660"/>
     <use xlink:href="#maa64b97fba" x="288.009335" y="220.559502" style="fill: #039188; stroke: #026660"/>
     <use xlink:href="#maa64b97fba" x="303.969006" y="221.446251" style="fill: #039188; stroke: #026660"/>
     <use xlink:href="#maa64b97fba" x="319.928678" y="217.899256" style="fill: #039188; stroke: #026660"/>
     <use xlink:href="#maa64b97fba" x="335.888349" y="201.937776" style="fill: #039188; stroke: #026660"/>
     <use xlink:href="#maa64b97fba" x="351.848021" y="205.484771" style="fill: #039188; stroke: #026660"/>
     <use xlink:href="#maa64b97fba" x="367.807692" y="199.277529" style="fill: #039188; stroke: #026660"/>
     <use xlink:href="#maa64b97fba" x="383.767364" y="195.730534" style="fill: #039188; stroke: #026660"/>
     <use xlink:href="#maa64b97fba" x="399.727035" y="190.410041" style="fill: #039188; stroke: #026660"/>
     <use xlink:href="#maa64b97fba" x="415.686706" y="90.207418" style="fill: #039188; stroke: #026660"/>
     <use xlink:href="#maa64b97fba" x="431.646378" y="129.224368" style="fill: #039188; stroke: #026660"/>
    </g>
   </g>
   <g id="line2d_54">
    <path d="M 64.573935 201.937776 
L 80.533606 178.882305 
L 96.493278 206.37152 
L 112.452949 226.766744 
L 128.41262 215.239009 
L 144.372292 208.145018 
L 160.331963 211.692013 
L 176.291635 224.106498 
L 192.251306 217.012507 
L 208.210978 232.087237 
L 224.170649 232.973986 
L 240.130321 240.954726 
L 256.089992 225.879995 
L 272.049663 221.446251 
L 288.009335 220.559502 
L 303.969006 211.692013 
L 319.928678 211.692013 
L 335.888349 215.239009 
L 351.848021 215.239009 
L 367.807692 209.918516 
L 383.767364 204.598022 
L 399.727035 197.504031 
L 415.686706 123.017126 
L 431.646378 130.997866 
" clip-path="url(#pe1cc90b0d4)" style="fill: none; stroke: #ee5383; stroke-width: 1.5; stroke-linecap: square"/>
    <defs>
     <path id="mfc41dd1705" d="M 0 3 
C 0.795609 3 1.55874 2.683901 2.12132 2.12132 
C 2.683901 1.55874 3 0.795609 3 0 
C 3 -0.795609 2.683901 -1.55874 2.12132 -2.12132 
C 1.55874 -2.683901 0.795609 -3 0 -3 
C -0.795609 -3 -1.55874 -2.683901 -2.12132 -2.12132 
C -2.683901 -1.55874 -3 -0.795609 -3 0 
C -3 0.795609 -2.683901 1.55874 -2.12132 2.12132 
C -1.55874 2.683901 -0.795609 3 0 3 
z
" style="stroke: #91334f"/>
    </defs>
    <g clip-path="url(#pe1cc90b0d4)">
     <use xlink:href="#mfc41dd1705" x="64.573935" y="201.937776" style="fill: #d14972; stroke: #91334f"/>
     <use xlink:href="#mfc41dd1705" x="80.533606" y="178.882305" style="fill: #d14972; stroke: #91334f"/>
     <use xlink:href="#mfc41dd1705" x="96.493278" y="206.37152" style="fill: #d14972; stroke: #91334f"/>
     <use xlink:href="#mfc41dd1705" x="112.452949" y="226.766744" style="fill: #d14972; stroke: #91334f"/>
     <use xlink:href="#mfc41dd1705" x="128.41262" y="215.239009" style="fill: #d14972; stroke: #91334f"/>
     <use xlink:href="#mfc41dd1705" x="144.372292" y="208.145018" style="fill: #d14972; stroke: #91334f"/>
     <use xlink:href="#mfc41dd1705" x="160.331963" y="211.692013" style="fill: #d14972; stroke: #91334f"/>
     <use xlink:href="#mfc41dd1705" x="176.291635" y="224.106498" style="fill: #d14972; stroke: #91334f"/>
     <use xlink:href="#mfc41dd1705" x="192.251306" y="217.012507" style="fill: #d14972; stroke: #91334f"/>
     <use xlink:href="#mfc41dd1705" x="208.210978" y="232.087237" style="fill: #d14972; stroke: #91334f"/>
     <use xlink:href="#mfc41dd1705" x="224.170649" y="232.973986" style="fill: #d14972; stroke: #91334f"/>
     <use xlink:href="#mfc41dd1705" x="240.130321" y="240.954726" style="fill: #d14972; stroke: #91334f"/>
     <use xlink:href="#mfc41dd1705" x="256.089992" y="225.879995" style="fill: #d14972; stroke: #91334f"/>
     <use xlink:href="#mfc41dd1705" x="272.049663" y="221.446251" style="fill: #d14972; stroke: #91334f"/>
     <use xlink:href="#mfc41dd1705" x="288.009335" y="220.559502" style="fill: #d14972; stroke: #91334f"/>
     <use xlink:href="#mfc41dd1705" x="303.969006" y="211.692013" style="fill: #d14972; stroke: #91334f"/>
     <use xlink:href="#mfc41dd1705" x="319.928678" y="211.692013" style="fill: #d14972; stroke: #91334f"/>
     <use xlink:href="#mfc41dd1705" x="335.888349" y="215.239009" style="fill: #d14972; stroke: #91334f"/>
     <use xlink:href="#mfc41dd1705" x="351.848021" y="215.239009" style="fill: #d14972; stroke: #91334f"/>
     <use xlink:href="#mfc41dd1705" x="367.807692" y="209.918516" style="fill: #d14972; stroke: #91334f"/>
     <use xlink:href="#mfc41dd1705" x="383.767364" y="204.598022" style="fill: #d14972; stroke: #91334f"/>
     <use xlink:href="#mfc41dd1705" x="399.727035" y="197.504031" style="fill: #d14972; stroke: #91334f"/>
     <use xlink:href="#mfc41dd1705" x="415.686706" y="123.017126" style="fill: #d14972; stroke: #91334f"/>
     <use xlink:href="#mfc41dd1705" x="431.646378" y="130.997866" style="fill: #d14972; stroke: #91334f"/>
    </g>
   </g>
   <g id="line2d_55">
    <path d="M 64.573935 200.164278 
L 80.533606 199.277529 
L 96.493278 193.070287 
L 112.452949 208.145018 
L 128.41262 171.788314 
L 144.372292 183.31605 
L 160.331963 201.051027 
L 176.291635 199.277529 
L 192.251306 162.034077 
L 208.210978 203.711274 
L 224.170649 201.937776 
L 240.130321 210.805265 
L 256.089992 190.410041 
L 272.049663 206.37152 
L 288.009335 209.031767 
L 303.969006 210.805265 
L 319.928678 210.805265 
L 335.888349 173.561812 
L 351.848021 192.183538 
L 367.807692 186.863045 
L 383.767364 180.655803 
L 399.727035 185.976296 
L 415.686706 37.889235 
L 431.646378 98.188158 
" clip-path="url(#pe1cc90b0d4)" style="fill: none; stroke: #d69653; stroke-width: 1.5; stroke-linecap: square"/>
    <defs>
     <path id="mbcdd0e82bb" d="M 0 3 
C 0.795609 3 1.55874 2.683901 2.12132 2.12132 
C 2.683901 1.55874 3 0.795609 3 0 
C 3 -0.795609 2.683901 -1.55874 2.12132 -2.12132 
C 1.55874 -2.683901 0.795609 -3 0 -3 
C -0.795609 -3 -1.55874 -2.683901 -2.12132 -2.12132 
C -2.683901 -1.55874 -3 -0.795609 -3 0 
C -3 0.795609 -2.683901 1.55874 -2.12132 2.12132 
C -1.55874 2.683901 -0.795609 3 0 3 
z
" style="stroke: #986d3c"/>
    </defs>
    <g clip-path="url(#pe1cc90b0d4)">
     <use xlink:href="#mbcdd0e82bb" x="64.573935" y="200.164278" style="fill: #bd874a; stroke: #986d3c"/>
     <use xlink:href="#mbcdd0e82bb" x="80.533606" y="199.277529" style="fill: #bd874a; stroke: #986d3c"/>
     <use xlink:href="#mbcdd0e82bb" x="96.493278" y="193.070287" style="fill: #bd874a; stroke: #986d3c"/>
     <use xlink:href="#mbcdd0e82bb" x="112.452949" y="208.145018" style="fill: #bd874a; stroke: #986d3c"/>
     <use xlink:href="#mbcdd0e82bb" x="128.41262" y="171.788314" style="fill: #bd874a; stroke: #986d3c"/>
     <use xlink:href="#mbcdd0e82bb" x="144.372292" y="183.31605" style="fill: #bd874a; stroke: #986d3c"/>
     <use xlink:href="#mbcdd0e82bb" x="160.331963" y="201.051027" style="fill: #bd874a; stroke: #986d3c"/>
     <use xlink:href="#mbcdd0e82bb" x="176.291635" y="199.277529" style="fill: #bd874a; stroke: #986d3c"/>
     <use xlink:href="#mbcdd0e82bb" x="192.251306" y="162.034077" style="fill: #bd874a; stroke: #986d3c"/>
     <use xlink:href="#mbcdd0e82bb" x="208.210978" y="203.711274" style="fill: #bd874a; stroke: #986d3c"/>
     <use xlink:href="#mbcdd0e82bb" x="224.170649" y="201.937776" style="fill: #bd874a; stroke: #986d3c"/>
     <use xlink:href="#mbcdd0e82bb" x="240.130321" y="210.805265" style="fill: #bd874a; stroke: #986d3c"/>
     <use xlink:href="#mbcdd0e82bb" x="256.089992" y="190.410041" style="fill: #bd874a; stroke: #986d3c"/>
     <use xlink:href="#mbcdd0e82bb" x="272.049663" y="206.37152" style="fill: #bd874a; stroke: #986d3c"/>
     <use xlink:href="#mbcdd0e82bb" x="288.009335" y="209.031767" style="fill: #bd874a; stroke: #986d3c"/>
     <use xlink:href="#mbcdd0e82bb" x="303.969006" y="210.805265" style="fill: #bd874a; stroke: #986d3c"/>
     <use xlink:href="#mbcdd0e82bb" x="319.928678" y="210.805265" style="fill: #bd874a; stroke: #986d3c"/>
     <use xlink:href="#mbcdd0e82bb" x="335.888349" y="173.561812" style="fill: #bd874a; stroke: #986d3c"/>
     <use xlink:href="#mbcdd0e82bb" x="351.848021" y="192.183538" style="fill: #bd874a; stroke: #986d3c"/>
     <use xlink:href="#mbcdd0e82bb" x="367.807692" y="186.863045" style="fill: #bd874a; stroke: #986d3c"/>
     <use xlink:href="#mbcdd0e82bb" x="383.767364" y="180.655803" style="fill: #bd874a; stroke: #986d3c"/>
     <use xlink:href="#mbcdd0e82bb" x="399.727035" y="185.976296" style="fill: #bd874a; stroke: #986d3c"/>
     <use xlink:href="#mbcdd0e82bb" x="415.686706" y="37.889235" style="fill: #bd874a; stroke: #986d3c"/>
     <use xlink:href="#mbcdd0e82bb" x="431.646378" y="98.188158" style="fill: #bd874a; stroke: #986d3c"/>
    </g>
   </g>
   <g id="line2d_56">
    <path d="M 64.573935 240.954726 
L 80.533606 239.181228 
L 96.493278 247.161968 
L 112.452949 268.443941 
L 128.41262 259.576452 
L 144.372292 271.104188 
L 160.331963 277.31143 
L 176.291635 231.200489 
L 192.251306 233.860735 
L 208.210978 246.275219 
L 224.170649 247.161968 
L 240.130321 243.614973 
L 256.089992 251.595713 
L 272.049663 232.087237 
L 288.009335 197.504031 
L 303.969006 193.957036 
L 319.928678 208.145018 
L 335.888349 221.446251 
L 351.848021 233.860735 
L 367.807692 234.747484 
L 383.767364 191.296789 
L 399.727035 166.467821 
L 415.686706 59.171208 
L 431.646378 125.677373 
" clip-path="url(#pe1cc90b0d4)" style="fill: none; stroke: #00abdf; stroke-width: 1.5; stroke-linecap: square"/>
    <defs>
     <path id="m938c474e4f" d="M 0 3 
C 0.795609 3 1.55874 2.683901 2.12132 2.12132 
C 2.683901 1.55874 3 0.795609 3 0 
C 3 -0.795609 2.683901 -1.55874 2.12132 -2.12132 
C 1.55874 -2.683901 0.795609 -3 0 -3 
C -0.795609 -3 -1.55874 -2.683901 -2.12132 -2.12132 
C -2.683901 -1.55874 -3 -0.795609 -3 0 
C -3 0.795609 -2.683901 1.55874 -2.12132 2.12132 
C -1.55874 2.683901 -0.795609 3 0 3 
z
" style="stroke: #017598"/>
    </defs>
    <g clip-path="url(#pe1cc90b0d4)">
     <use xlink:href="#m938c474e4f" x="64.573935" y="240.954726" style="fill: #0395c1; stroke: #017598"/>
     <use xlink:href="#m938c474e4f" x="80.533606" y="239.181228" style="fill: #0395c1; stroke: #017598"/>
     <use xlink:href="#m938c474e4f" x="96.493278" y="247.161968" style="fill: #0395c1; stroke: #017598"/>
     <use xlink:href="#m938c474e4f" x="112.452949" y="268.443941" style="fill: #0395c1; stroke: #017598"/>
     <use xlink:href="#m938c474e4f" x="128.41262" y="259.576452" style="fill: #0395c1; stroke: #017598"/>
     <use xlink:href="#m938c474e4f" x="144.372292" y="271.104188" style="fill: #0395c1; stroke: #017598"/>
     <use xlink:href="#m938c474e4f" x="160.331963" y="277.31143" style="fill: #0395c1; stroke: #017598"/>
     <use xlink:href="#m938c474e4f" x="176.291635" y="231.200489" style="fill: #0395c1; stroke: #017598"/>
     <use xlink:href="#m938c474e4f" x="192.251306" y="233.860735" style="fill: #0395c1; stroke: #017598"/>
     <use xlink:href="#m938c474e4f" x="208.210978" y="246.275219" style="fill: #0395c1; stroke: #017598"/>
     <use xlink:href="#m938c474e4f" x="224.170649" y="247.161968" style="fill: #0395c1; stroke: #017598"/>
     <use xlink:href="#m938c474e4f" x="240.130321" y="243.614973" style="fill: #0395c1; stroke: #017598"/>
     <use xlink:href="#m938c474e4f" x="256.089992" y="251.595713" style="fill: #0395c1; stroke: #017598"/>
     <use xlink:href="#m938c474e4f" x="272.049663" y="232.087237" style="fill: #0395c1; stroke: #017598"/>
     <use xlink:href="#m938c474e4f" x="288.009335" y="197.504031" style="fill: #0395c1; stroke: #017598"/>
     <use xlink:href="#m938c474e4f" x="303.969006" y="193.957036" style="fill: #0395c1; stroke: #017598"/>
     <use xlink:href="#m938c474e4f" x="319.928678" y="208.145018" style="fill: #0395c1; stroke: #017598"/>
     <use xlink:href="#m938c474e4f" x="335.888349" y="221.446251" style="fill: #0395c1; stroke: #017598"/>
     <use xlink:href="#m938c474e4f" x="351.848021" y="233.860735" style="fill: #0395c1; stroke: #017598"/>
     <use xlink:href="#m938c474e4f" x="367.807692" y="234.747484" style="fill: #0395c1; stroke: #017598"/>
     <use xlink:href="#m938c474e4f" x="383.767364" y="191.296789" style="fill: #0395c1; stroke: #017598"/>
     <use xlink:href="#m938c474e4f" x="399.727035" y="166.467821" style="fill: #0395c1; stroke: #017598"/>
     <use xlink:href="#m938c474e4f" x="415.686706" y="59.171208" style="fill: #0395c1; stroke: #017598"/>
     <use xlink:href="#m938c474e4f" x="431.646378" y="125.677373" style="fill: #0395c1; stroke: #017598"/>
    </g>
   </g>
   <g id="patch_3">
    <path d="M 46.220313 289.28254 
L 46.220313 25.918125 
" style="fill: none; stroke: #000000; stroke-width: 0.8; stroke-linejoin: miter; stroke-linecap: square"/>
   </g>
   <g id="patch_4">
    <path d="M 450 289.28254 
L 450 25.918125 
" style="fill: none; stroke: #000000; stroke-width: 0.8; stroke-linejoin: miter; stroke-linecap: square"/>
   </g>
   <g id="patch_5">
    <path d="M 46.220313 289.28254 
L 450 289.28254 
" style="fill: none; stroke: #000000; stroke-width: 0.8; stroke-linejoin: miter; stroke-linecap: square"/>
   </g>
   <g id="patch_6">
    <path d="M 46.220313 25.918125 
L 450 25.918125 
" style="fill: none; stroke: #000000; stroke-width: 0.8; stroke-linejoin: miter; stroke-linecap: square"/>
   </g>
   <g id="text_41">
    <!-- Consumer price index development in Czech republic -->
    <g transform="translate(87.463906 19.918125) scale(0.12 -0.12)">
     <defs>
      <path id="DejaVuSans-78" d="M 3513 3500 
L 2247 1797 
L 3578 0 
L 2900 0 
L 1881 1375 
L 863 0 
L 184 0 
L 1544 1831 
L 300 3500 
L 978 3500 
L 1906 2253 
L 2834 3500 
L 3513 3500 
z
" transform="scale(0.015625)"/>
      <path id="DejaVuSans-6c" d="M 603 4863 
L 1178 4863 
L 1178 0 
L 603 0 
L 603 4863 
z
" transform="scale(0.015625)"/>
      <path id="DejaVuSans-74" d="M 1172 4494 
L 1172 3500 
L 2356 3500 
L 2356 3053 
L 1172 3053 
L 1172 1153 
Q 1172 725 1289 603 
Q 1406 481 1766 481 
L 2356 481 
L 2356 0 
L 1766 0 
Q 1100 0 847 248 
Q 594 497 594 1153 
L 594 3053 
L 172 3053 
L 172 3500 
L 594 3500 
L 594 4494 
L 1172 4494 
z
" transform="scale(0.015625)"/>
      <path id="DejaVuSans-7a" d="M 353 3500 
L 3084 3500 
L 3084 2975 
L 922 459 
L 3084 459 
L 3084 0 
L 275 0 
L 275 525 
L 2438 3041 
L 353 3041 
L 353 3500 
z
" transform="scale(0.015625)"/>
      <path id="DejaVuSans-68" d="M 3513 2113 
L 3513 0 
L 2938 0 
L 2938 2094 
Q 2938 2591 2744 2837 
Q 2550 3084 2163 3084 
Q 1697 3084 1428 2787 
Q 1159 2491 1159 1978 
L 1159 0 
L 581 0 
L 581 4863 
L 1159 4863 
L 1159 2956 
Q 1366 3272 1645 3428 
Q 1925 3584 2291 3584 
Q 2894 3584 3203 3211 
Q 3513 2838 3513 2113 
z
" transform="scale(0.015625)"/>
      <path id="DejaVuSans-62" d="M 3116 1747 
Q 3116 2381 2855 2742 
Q 2594 3103 2138 3103 
Q 1681 3103 1420 2742 
Q 1159 2381 1159 1747 
Q 1159 1113 1420 752 
Q 1681 391 2138 391 
Q 2594 391 2855 752 
Q 3116 1113 3116 1747 
z
M 1159 2969 
Q 1341 3281 1617 3432 
Q 1894 3584 2278 3584 
Q 2916 3584 3314 3078 
Q 3713 2572 3713 1747 
Q 3713 922 3314 415 
Q 2916 -91 2278 -91 
Q 1894 -91 1617 61 
Q 1341 213 1159 525 
L 1159 0 
L 581 0 
L 581 4863 
L 1159 4863 
L 1159 2969 
z
" transform="scale(0.015625)"/>
     </defs>
     <use xlink:href="#DejaVuSans-43"/>
     <use xlink:href="#DejaVuSans-6f" x="69.824219"/>
     <use xlink:href="#DejaVuSans-6e" x="131.005859"/>
     <use xlink:href="#DejaVuSans-73" x="194.384766"/>
     <use xlink:href="#DejaVuSans-75" x="246.484375"/>
     <use xlink:href="#DejaVuSans-6d" x="309.863281"/>
     <use xlink:href="#DejaVuSans-65" x="407.275391"/>
     <use xlink:href="#DejaVuSans-72" x="468.798828"/>
     <use xlink:href="#DejaVuSans-20" x="509.912109"/>
     <use xlink:href="#DejaVuSans-70" x="541.699219"/>
     <use xlink:href="#DejaVuSans-72" x="605.175781"/>
     <use xlink:href="#DejaVuSans-69" x="646.289062"/>
     <use xlink:href="#DejaVuSans-63" x="674.072266"/>
     <use xlink:href="#DejaVuSans-65" x="729.052734"/>
     <use xlink:href="#DejaVuSans-20" x="790.576172"/>
     <use xlink:href="#DejaVuSans-69" x="822.363281"/>
     <use xlink:href="#DejaVuSans-6e" x="850.146484"/>
     <use xlink:href="#DejaVuSans-64" x="913.525391"/>
     <use xlink:href="#DejaVuSans-65" x="977.001953"/>
     <use xlink:href="#DejaVuSans-78" x="1036.775391"/>
     <use xlink:href="#DejaVuSans-20" x="1095.955078"/>
     <use xlink:href="#DejaVuSans-64" x="1127.742188"/>
     <use xlink:href="#DejaVuSans-65" x="1191.21875"/>
     <use xlink:href="#DejaVuSans-76" x="1252.742188"/>
     <use xlink:href="#DejaVuSans-65" x="1311.921875"/>
     <use xlink:href="#DejaVuSans-6c" x="1373.445312"/>
     <use xlink:href="#DejaVuSans-6f" x="1401.228516"/>
     <use xlink:href="#DejaVuSans-70" x="1462.410156"/>
     <use xlink:href="#DejaVuSans-6d" x="1525.886719"/>
     <use xlink:href="#DejaVuSans-65" x="1623.298828"/>
     <use xlink:href="#DejaVuSans-6e" x="1684.822266"/>
     <use xlink:href="#DejaVuSans-74" x="1748.201172"/>
     <use xlink:href="#DejaVuSans-20" x="1787.410156"/>
     <use xlink:href="#DejaVuSans-69" x="1819.197266"/>
     <use xlink:href="#DejaVuSans-6e" x="1846.980469"/>
     <use xlink:href="#DejaVuSans-20" x="1910.359375"/>
     <use xlink:href="#DejaVuSans-43" x="1942.146484"/>
     <use xlink:href="#DejaVuSans-7a" x="2011.970703"/>
     <use xlink:href="#DejaVuSans-65" x="2064.460938"/>
     <use xlink:href="#DejaVuSans-63" x="2125.984375"/>
     <use xlink:href="#DejaVuSans-68" x="2180.964844"/>
     <use xlink:href="#DejaVuSans-20" x="2244.34375"/>
     <use xlink:href="#DejaVuSans-72" x="2276.130859"/>
     <use xlink:href="#DejaVuSans-65" x="2314.994141"/>
     <use xlink:href="#DejaVuSans-70" x="2376.517578"/>
     <use xlink:href="#DejaVuSans-75" x="2439.994141"/>
     <use xlink:href="#DejaVuSans-62" x="2503.373047"/>
     <use xlink:href="#DejaVuSans-6c" x="2566.849609"/>
     <use xlink:href="#DejaVuSans-69" x="2594.632812"/>
     <use xlink:href="#DejaVuSans-63" x="2622.416016"/>
    </g>
   </g>
   <g id="legend_1">
    <g id="patch_7">
     <path d="M 53.220313 92.630625 
L 233.625 92.630625 
Q 235.625 92.630625 235.625 90.630625 
L 235.625 32.918125 
Q 235.625 30.918125 233.625 30.918125 
L 53.220313 30.918125 
Q 51.220313 30.918125 51.220313 32.918125 
L 51.220313 90.630625 
Q 51.220313 92.630625 53.220313 92.630625 
z
" style="fill: #ffffff; opacity: 0.8; stroke: #cccccc; stroke-linejoin: miter"/>
    </g>
    <g id="line2d_57">
     <path d="M 55.220313 39.016562 
L 65.220313 39.016562 
L 75.220313 39.016562 
" style="fill: none; stroke: #00bdb1; stroke-width: 1.5; stroke-linecap: square"/>
     <g>
      <use xlink:href="#maa64b97fba" x="65.220313" y="39.016562" style="fill: #039188; stroke: #026660"/>
     </g>
    </g>
    <g id="text_42">
     <!-- total -->
     <g transform="translate(83.220313 42.516562) scale(0.1 -0.1)">
      <use xlink:href="#DejaVuSans-74"/>
      <use xlink:href="#DejaVuSans-6f" x="39.208984"/>
      <use xlink:href="#DejaVuSans-74" x="100.390625"/>
      <use xlink:href="#DejaVuSans-61" x="139.599609"/>
      <use xlink:href="#DejaVuSans-6c" x="200.878906"/>
     </g>
    </g>
    <g id="line2d_58">
     <path d="M 55.220313 53.694687 
L 65.220313 53.694687 
L 75.220313 53.694687 
" style="fill: none; stroke: #ee5383; stroke-width: 1.5; stroke-linecap: square"/>
     <g>
      <use xlink:href="#mfc41dd1705" x="65.220313" y="53.694687" style="fill: #d14972; stroke: #91334f"/>
     </g>
    </g>
    <g id="text_43">
     <!-- Recreation and culture -->
     <g transform="translate(83.220313 57.194687) scale(0.1 -0.1)">
      <defs>
       <path id="DejaVuSans-52" d="M 2841 2188 
Q 3044 2119 3236 1894 
Q 3428 1669 3622 1275 
L 4263 0 
L 3584 0 
L 2988 1197 
Q 2756 1666 2539 1819 
Q 2322 1972 1947 1972 
L 1259 1972 
L 1259 0 
L 628 0 
L 628 4666 
L 2053 4666 
Q 2853 4666 3247 4331 
Q 3641 3997 3641 3322 
Q 3641 2881 3436 2590 
Q 3231 2300 2841 2188 
z
M 1259 4147 
L 1259 2491 
L 2053 2491 
Q 2509 2491 2742 2702 
Q 2975 2913 2975 3322 
Q 2975 3731 2742 3939 
Q 2509 4147 2053 4147 
L 1259 4147 
z
" transform="scale(0.015625)"/>
      </defs>
      <use xlink:href="#DejaVuSans-52"/>
      <use xlink:href="#DejaVuSans-65" x="64.982422"/>
      <use xlink:href="#DejaVuSans-63" x="126.505859"/>
      <use xlink:href="#DejaVuSans-72" x="181.486328"/>
      <use xlink:href="#DejaVuSans-65" x="220.349609"/>
      <use xlink:href="#DejaVuSans-61" x="281.873047"/>
      <use xlink:href="#DejaVuSans-74" x="343.152344"/>
      <use xlink:href="#DejaVuSans-69" x="382.361328"/>
      <use xlink:href="#DejaVuSans-6f" x="410.144531"/>
      <use xlink:href="#DejaVuSans-6e" x="471.326172"/>
      <use xlink:href="#DejaVuSans-20" x="534.705078"/>
      <use xlink:href="#DejaVuSans-61" x="566.492188"/>
      <use xlink:href="#DejaVuSans-6e" x="627.771484"/>
      <use xlink:href="#DejaVuSans-64" x="691.150391"/>
      <use xlink:href="#DejaVuSans-20" x="754.626953"/>
      <use xlink:href="#DejaVuSans-63" x="786.414062"/>
      <use xlink:href="#DejaVuSans-75" x="841.394531"/>
      <use xlink:href="#DejaVuSans-6c" x="904.773438"/>
      <use xlink:href="#DejaVuSans-74" x="932.556641"/>
      <use xlink:href="#DejaVuSans-75" x="971.765625"/>
      <use xlink:href="#DejaVuSans-72" x="1035.144531"/>
      <use xlink:href="#DejaVuSans-65" x="1074.007812"/>
     </g>
    </g>
    <g id="line2d_59">
     <path d="M 55.220313 68.372812 
L 65.220313 68.372812 
L 75.220313 68.372812 
" style="fill: none; stroke: #d69653; stroke-width: 1.5; stroke-linecap: square"/>
     <g>
      <use xlink:href="#mbcdd0e82bb" x="65.220313" y="68.372812" style="fill: #bd874a; stroke: #986d3c"/>
     </g>
    </g>
    <g id="text_44">
     <!-- Catering and accommodation -->
     <g transform="translate(83.220313 71.872812) scale(0.1 -0.1)">
      <defs>
       <path id="DejaVuSans-67" d="M 2906 1791 
Q 2906 2416 2648 2759 
Q 2391 3103 1925 3103 
Q 1463 3103 1205 2759 
Q 947 2416 947 1791 
Q 947 1169 1205 825 
Q 1463 481 1925 481 
Q 2391 481 2648 825 
Q 2906 1169 2906 1791 
z
M 3481 434 
Q 3481 -459 3084 -895 
Q 2688 -1331 1869 -1331 
Q 1566 -1331 1297 -1286 
Q 1028 -1241 775 -1147 
L 775 -588 
Q 1028 -725 1275 -790 
Q 1522 -856 1778 -856 
Q 2344 -856 2625 -561 
Q 2906 -266 2906 331 
L 2906 616 
Q 2728 306 2450 153 
Q 2172 0 1784 0 
Q 1141 0 747 490 
Q 353 981 353 1791 
Q 353 2603 747 3093 
Q 1141 3584 1784 3584 
Q 2172 3584 2450 3431 
Q 2728 3278 2906 2969 
L 2906 3500 
L 3481 3500 
L 3481 434 
z
" transform="scale(0.015625)"/>
      </defs>
      <use xlink:href="#DejaVuSans-43"/>
      <use xlink:href="#DejaVuSans-61" x="69.824219"/>
      <use xlink:href="#DejaVuSans-74" x="131.103516"/>
      <use xlink:href="#DejaVuSans-65" x="170.3125"/>
      <use xlink:href="#DejaVuSans-72" x="231.835938"/>
      <use xlink:href="#DejaVuSans-69" x="272.949219"/>
      <use xlink:href="#DejaVuSans-6e" x="300.732422"/>
      <use xlink:href="#DejaVuSans-67" x="364.111328"/>
      <use xlink:href="#DejaVuSans-20" x="427.587891"/>
      <use xlink:href="#DejaVuSans-61" x="459.375"/>
      <use xlink:href="#DejaVuSans-6e" x="520.654297"/>
      <use xlink:href="#DejaVuSans-64" x="584.033203"/>
      <use xlink:href="#DejaVuSans-20" x="647.509766"/>
      <use xlink:href="#DejaVuSans-61" x="679.296875"/>
      <use xlink:href="#DejaVuSans-63" x="740.576172"/>
      <use xlink:href="#DejaVuSans-63" x="795.556641"/>
      <use xlink:href="#DejaVuSans-6f" x="850.537109"/>
      <use xlink:href="#DejaVuSans-6d" x="911.71875"/>
      <use xlink:href="#DejaVuSans-6d" x="1009.130859"/>
      <use xlink:href="#DejaVuSans-6f" x="1106.542969"/>
      <use xlink:href="#DejaVuSans-64" x="1167.724609"/>
      <use xlink:href="#DejaVuSans-61" x="1231.201172"/>
      <use xlink:href="#DejaVuSans-74" x="1292.480469"/>
      <use xlink:href="#DejaVuSans-69" x="1331.689453"/>
      <use xlink:href="#DejaVuSans-6f" x="1359.472656"/>
      <use xlink:href="#DejaVuSans-6e" x="1420.654297"/>
     </g>
    </g>
    <g id="line2d_60">
     <path d="M 55.220313 83.050937 
L 65.220313 83.050937 
L 75.220313 83.050937 
" style="fill: none; stroke: #00abdf; stroke-width: 1.5; stroke-linecap: square"/>
     <g>
      <use xlink:href="#m938c474e4f" x="65.220313" y="83.050937" style="fill: #0395c1; stroke: #017598"/>
     </g>
    </g>
    <g id="text_45">
     <!-- Clothing and footwear -->
     <g transform="translate(83.220313 86.550937) scale(0.1 -0.1)">
      <defs>
       <path id="DejaVuSans-77" d="M 269 3500 
L 844 3500 
L 1563 769 
L 2278 3500 
L 2956 3500 
L 3675 769 
L 4391 3500 
L 4966 3500 
L 4050 0 
L 3372 0 
L 2619 2869 
L 1863 0 
L 1184 0 
L 269 3500 
z
" transform="scale(0.015625)"/>
      </defs>
      <use xlink:href="#DejaVuSans-43"/>
      <use xlink:href="#DejaVuSans-6c" x="69.824219"/>
      <use xlink:href="#DejaVuSans-6f" x="97.607422"/>
      <use xlink:href="#DejaVuSans-74" x="158.789062"/>
      <use xlink:href="#DejaVuSans-68" x="197.998047"/>
      <use xlink:href="#DejaVuSans-69" x="261.376953"/>
      <use xlink:href="#DejaVuSans-6e" x="289.160156"/>
      <use xlink:href="#DejaVuSans-67" x="352.539062"/>
      <use xlink:href="#DejaVuSans-20" x="416.015625"/>
      <use xlink:href="#DejaVuSans-61" x="447.802734"/>
      <use xlink:href="#DejaVuSans-6e" x="509.082031"/>
      <use xlink:href="#DejaVuSans-64" x="572.460938"/>
      <use xlink:href="#DejaVuSans-20" x="635.9375"/>
      <use xlink:href="#DejaVuSans-66" x="667.724609"/>
      <use xlink:href="#DejaVuSans-6f" x="702.929688"/>
      <use xlink:href="#DejaVuSans-6f" x="764.111328"/>
      <use xlink:href="#DejaVuSans-74" x="825.292969"/>
      <use xlink:href="#DejaVuSans-77" x="864.501953"/>
      <use xlink:href="#DejaVuSans-65" x="946.289062"/>
      <use xlink:href="#DejaVuSans-61" x="1007.8125"/>
      <use xlink:href="#DejaVuSans-72" x="1069.091797"/>
     </g>
    </g>
   </g>
  </g>
 </g>
 <defs>
  <clipPath id="pe1cc90b0d4">
   <rect x="46.220313" y="25.918125" width="403.779687" height="263.364415"/>
  </clipPath>
 </defs>
</svg>
